<svg preserveAspectRatio="none" width="100%" height="100%" overflow="visible" style="display: block;" viewBox="0 0 1860 75" fill="none" xmlns="http://www.w3.org/2000/svg">
<g id="top-bg">
<path d="M1859 1V26.9902C1859 40.2478 1848.26 50.9902 1835 50.9902H372.443L372.388 50.9961C368.502 51.4357 363.246 52.3346 358.592 53.3398C356.264 53.8427 354.073 54.3753 352.271 54.8936C350.556 55.3872 349.102 55.8949 348.232 56.3848L332.221 63.1592L332.138 62.9111L331.111 63.4111C324.566 66.6021 316.618 69.2537 309.242 71.1074C301.852 72.9645 295.12 74 291 74H25C11.7423 74 1 63.2577 1 50V30C1 29.754 1.02364 29.5098 1.07031 29.2764L1.09766 29.1426L1.08691 29.0078C1.03747 28.3255 1 27.6637 1 27V1H1859Z" fill="var(--fill-0, #3C3366)"/>
<path d="M1859 1V26.9902C1859 40.2478 1848.26 50.9902 1835 50.9902H372.443L372.388 50.9961C368.502 51.4357 363.246 52.3346 358.592 53.3398C356.264 53.8427 354.073 54.3753 352.271 54.8936C350.556 55.3872 349.102 55.8949 348.232 56.3848L332.221 63.1592L332.138 62.9111L331.111 63.4111C324.566 66.6021 316.618 69.2537 309.242 71.1074C301.852 72.9645 295.12 74 291 74H25C11.7423 74 1 63.2577 1 50V30C1 29.754 1.02364 29.5098 1.07031 29.2764L1.09766 29.1426L1.08691 29.0078C1.03747 28.3255 1 27.6637 1 27V1H1859Z" fill="url(#paint0_radial_211_1749)"/>
<path d="M1859 1V26.9902C1859 40.2478 1848.26 50.9902 1835 50.9902H372.443L372.388 50.9961C368.502 51.4357 363.246 52.3346 358.592 53.3398C356.264 53.8427 354.073 54.3753 352.271 54.8936C350.556 55.3872 349.102 55.8949 348.232 56.3848L332.221 63.1592L332.138 62.9111L331.111 63.4111C324.566 66.6021 316.618 69.2537 309.242 71.1074C301.852 72.9645 295.12 74 291 74H25C11.7423 74 1 63.2577 1 50V30C1 29.754 1.02364 29.5098 1.07031 29.2764L1.09766 29.1426L1.08691 29.0078C1.03747 28.3255 1 27.6637 1 27V1H1859Z" stroke="url(#paint1_radial_211_1749)" stroke-width="2" stroke-miterlimit="10"/>
</g>
<defs>
<radialGradient id="paint0_radial_211_1749" cx="0" cy="0" r="1" gradientUnits="userSpaceOnUse" gradientTransform="translate(930 37.5) scale(1864.84 37.0153)">
<stop stop-opacity="0.8"/>
<stop offset="1" stop-opacity="0.3"/>
</radialGradient>
<radialGradient id="paint1_radial_211_1749" cx="0" cy="0" r="1" gradientUnits="userSpaceOnUse" gradientTransform="translate(930 37.5) scale(930 99.9469)">
<stop stop-color="#757FBF"/>
<stop offset="1" stop-color="#5E6383" stop-opacity="0"/>
</radialGradient>
</defs>
</svg>
