<svg preserveAspectRatio="none" width="100%" height="100%" overflow="visible" style="display: block;" viewBox="0 0 467 71" fill="none" xmlns="http://www.w3.org/2000/svg">
<g id="line">
<path id="Vector 3" d="M1 21.1073C1.66381 22.1106 4.8833 23.5153 12.4507 21.1073C21.9101 18.0973 21.9101 9.06743 30.8715 8.56577C39.833 8.0641 40.8287 12.0774 46.3051 16.5924C51.7816 21.1073 56.2623 39.1671 67.7131 30.1372C79.1638 21.1073 88.6231 -8.49077 104.057 4.05079C119.49 16.5924 121.98 38.1638 131.439 34.1505C140.898 30.1372 148.366 16.5923 155.834 21.1073C163.302 25.6223 163.8 39.1671 172.263 30.1372C180.727 21.1073 179.731 21.1073 188.693 21.1073C197.654 21.1073 192.676 34.1505 202.633 34.1505C212.59 34.1505 206.118 21.1073 218.066 21.1073C230.015 21.1073 229.019 38.1638 236.985 34.1505C244.951 30.1372 247.44 24.1173 256.899 25.6223C266.359 27.1273 268.35 34.1505 273.827 34.1505C279.303 34.1505 278.805 25.6223 289.758 25.6223C300.711 25.6223 303.2 21.1073 308.677 21.1073C314.153 21.1073 313.655 25.6223 319.63 25.6223C325.604 25.6223 319.63 30.1372 330.085 30.1372C340.54 30.1372 334.565 25.6223 343.029 25.6223C351.493 25.6223 349.003 21.1073 359.956 21.1073C364.437 21.1073 370.909 24.1173 375.39 21.1073C379.87 18.0973 385.347 18.599 391.819 20.104C402.902 22.6812 395.802 32.6455 405.759 32.6455C414.223 32.6455 418.703 26.6256 427.665 28.2756C440.091 30.5636 440.609 42.1771 446.086 38.1638C451.562 34.1505 461.519 38.1638 466 38.1638" stroke="var(--stroke-0, #122023)" stroke-width="2"/>
<path id="Vector 4" d="M1.5 28.5C13 28.5 10.5 16 18.5 18.5C26.5 21 18.5 28.5 29 28.5C50 23.5 45.5 39.5 56.5 34C78.5 28.5 74 42 83.5 38C93 34 91 25.5 99 24.5C107 23.5 105.5 18.5 113.5 18.5C121.5 18.5 126.5 18.5 130.5 18.5C134.5 18.5 135 38 143 38C151 38 155 30 163 34C169.4 37.2 180.333 38 185 38C185.167 36.6667 187.7 34 196.5 34C207.5 34 211 38 217.5 38C224 38 234 42 243.5 38C253 34 256 43 265.5 43C275 43 274 38 285 38C296 38 288 18.5 298.5 18.5C309 18.5 317.5 38 321.5 38C325.5 38 330 39.5 339 34C348 28.5 356.5 18.5 366 18.5C375.5 18.5 380.5 18.5 391 18.5C401.5 18.5 396 24.5 413 24.5C430 24.5 429 30.5 440.5 24.5C452 18.5 459 18.5 466 18.5" stroke="var(--stroke-0, #A285FF)" stroke-width="2"/>
<path id="Vector 5" d="M0 47.3092C1.84322 47.3092 7.33937 47.3092 14.5782 47.3092C23.6268 47.3092 22.1187 43.2503 31.1672 43.2503C35.866 43.2503 36.6969 47.3092 42.2265 47.3092C47.7562 47.3092 56.6037 43.2503 63.8425 43.2503C71.0813 43.2503 72.891 45.7871 79.9288 43.2503C83.4477 41.2208 88.4746 38.1767 94.507 38.1767C112.101 38.1767 114.112 55.427 120.647 53.9049C127.182 52.3828 121.653 38.1767 126.68 38.1767C131.707 38.1767 131.204 47.3092 138.242 47.3092C145.279 47.3092 142.766 33.1031 146.787 33.1031C150.005 33.1031 160.863 42.5738 165.89 47.3092C167.23 47.6474 171.721 47.3092 178.96 43.2503C188.009 38.1767 194.61 41.0327 198.565 43.2503C203.09 45.7871 203.09 51.3681 214.652 47.3092C226.214 43.2503 233.013 39.8796 236.77 43.2503C241.294 47.3092 243.305 49.846 250.846 49.846C262.408 49.846 262.91 43.2503 266.932 43.2503C270.954 43.2503 272.964 47.3092 281.008 47.3092C289.051 47.3092 291.135 42.0273 295.586 38.1767C299.105 35.1325 306.645 33.1031 312.175 35.1325C317.704 37.1619 321.525 43.2503 328.764 43.2503C337.812 43.2503 339.633 38.9282 342.337 36.6545C345.353 34.1177 352.893 26 359.931 26C367.503 26 368.778 31.581 374.006 38.1767C378.028 43.2503 383.457 38.1767 387.077 38.1767C393.612 38.1767 397.131 33.1031 402.157 33.1031C407.184 33.1031 407.687 26 413.217 26C417.641 26 418.244 31.581 421.763 35.1325C425.282 37.5002 432.319 38.7855 434.33 33.1031C438.352 27.5221 441.368 33.1031 448.908 33.1031C452.595 33.6104 457.957 35.1325 460.973 31.581C462.628 29.6319 464.659 26.8456 466 26" stroke="var(--stroke-0, #39A4FF)" stroke-width="2"/>
<path id="Vector 6" d="M1 62.3936C5.90185 62.3936 17.1254 62.3936 22.8048 62.3936C29.904 62.3936 31.4253 60 37.5104 60C43.5954 60 52.723 62.3936 58.8081 62.3936C64.8931 62.3936 68.9498 67.6596 74.0207 67.6596C79.0916 67.6596 82.6412 67.6596 86.6979 67.6596C90.7546 67.6596 97.8539 62.3936 102.925 62.3936C107.996 62.3936 117.123 67.6596 125.237 67.6596C133.35 67.6596 138.421 72.9255 143.999 67.6596C149.577 62.3936 146.534 62.3936 160.226 62.3936C173.917 62.3936 181.523 67.6596 198.764 67.6596C216.005 67.6596 224.626 72.9255 234.768 67.6596C244.909 62.3936 252.009 62.3936 267.221 62.3936C282.434 62.3936 288.012 67.6596 298.661 67.6596C309.31 67.6596 327.565 62.3936 338.214 62.3936C348.863 62.3936 336.692 62.3936 362.554 62.3936C383.243 62.3936 392.81 65.9043 395.008 67.6596C399.064 69.4149 408.699 71.8723 414.784 67.6596C422.39 62.3936 433.039 62.3936 439.631 62.3936C446.224 62.3936 459.915 67.6596 466 67.6596" stroke="var(--stroke-0, #1CB75E)" stroke-width="2"/>
</g>
</svg>
