<svg width="75" height="78" viewBox="0 0 75 78" fill="none" xmlns="http://www.w3.org/2000/svg">
<g opacity="0.8">
<path d="M33.7781 63.9373L3.08808 46.1673C0.898076 44.9073 1.17808 42.6973 3.69808 41.2373L33.1581 24.1773C35.6781 22.7173 39.4881 22.5573 41.6681 23.8273L72.3481 41.5873C74.5281 42.8473 74.2581 45.0573 71.7381 46.5173L42.2781 63.5673C39.7581 65.0273 35.9481 65.1873 33.7681 63.9173L33.7781 63.9373Z" fill="url(#paint0_linear_26_1411)" style="mix-blend-mode:plus-darker"/>
</g>
<g opacity="0.5">
<path d="M33.4181 76.0673L2.72805 58.2973C0.548053 57.0373 0.818053 54.8273 3.33805 53.3673L32.7981 36.3173C35.3181 34.8573 39.0881 36.1273 41.2681 37.3973L71.6281 54.8373C73.8081 56.0973 73.8981 57.1973 71.3881 58.6573L41.9281 75.7073C39.4081 77.1673 35.5981 77.3273 33.4181 76.0573V76.0673Z" fill="url(#paint1_linear_26_1411)" style="mix-blend-mode:plus-darker"/>
<path d="M33.4181 76.0673L2.72805 58.2973C0.548053 57.0373 0.818053 54.8273 3.33805 53.3673L32.7981 36.3173C35.3181 34.8573 39.0881 36.1273 41.2681 37.3973L71.6281 54.8373C73.8081 56.0973 73.8981 57.1973 71.3881 58.6573L41.9281 75.7073C39.4081 77.1673 35.5981 77.3273 33.4181 76.0573V76.0673Z" stroke="#B5C5CC"/>
</g>
<g opacity="0.7">
<path d="M37.178 77.0673C35.898 77.1073 34.638 76.8073 33.508 76.2173L3.06804 58.4473C2.17804 58.0373 1.60804 57.1473 1.61804 56.1573V46.1373C0.768039 45.2473 0.798039 43.8273 1.68804 42.9773C1.70804 42.9573 1.73804 42.9373 1.75804 42.9073L2.93804 45.2573C6.94804 47.5673 32.758 62.2873 33.018 62.4473C34.648 63.1573 36.408 63.5373 38.188 63.5573C39.868 63.5573 41.528 63.1773 43.038 62.4473C47.578 60.2573 71.438 45.4073 71.678 45.2573C72.158 44.6573 72.558 43.9973 72.868 43.2873C73.258 43.8973 73.298 44.6673 72.968 45.3173L73.258 45.9073V56.1473H73.248C73.038 57.3073 72.268 58.2973 71.188 58.7873L41.958 75.8473C40.498 76.6473 38.848 77.0673 37.178 77.0573V77.0673ZM39.028 23.7773H35.548C36.138 23.6773 36.738 23.6273 37.328 23.6273C37.898 23.6273 38.468 23.6773 39.028 23.7773Z" fill="url(#paint2_linear_26_1411)" style="mix-blend-mode:plus-darker"/>
</g>
<path d="M73.978 45.8173L38.498 65.9373V76.7173L74.128 57.5573L73.978 45.8273V45.8173Z" fill="url(#paint3_linear_26_1411)" style="mix-blend-mode:plus-darker"/>
<g opacity="0.6">
<path d="M36.8679 65.1073C35.7879 65.0673 34.7279 64.7873 33.7679 64.2773L3.09793 46.5273C0.917926 45.2673 1.18793 43.0573 3.70793 41.6073L33.1679 24.5573C34.8579 23.6373 36.7779 23.2273 38.6979 23.3773H38.6779C39.7279 23.4273 40.7579 23.7073 41.6879 24.2073L72.3779 41.9573C74.5579 43.2173 74.2879 45.4273 71.7679 46.8773L42.3079 63.9273C40.8279 64.7273 39.1779 65.1473 37.4979 65.1273C37.2979 65.1273 37.0979 65.1273 36.8979 65.1173L36.8679 65.1073ZM34.5379 24.5573L5.07793 41.5973C2.55793 43.0573 2.28793 45.2573 4.46793 46.5173L35.1479 64.2673C35.8979 64.6773 36.7179 64.9373 37.5679 65.0373C38.7979 64.8973 39.9979 64.5173 41.0879 63.9173L70.5479 46.8773C73.0679 45.4173 73.3379 43.2173 71.1579 41.9573L40.4779 24.2073C39.7279 23.7973 38.9079 23.5373 38.0579 23.4373C36.8279 23.5773 35.6279 23.9573 34.5479 24.5573H34.5379Z" fill="url(#paint4_linear_26_1411)" style="mix-blend-mode:plus-darker"/>
</g>
<path d="M16.3881 58.8073C17.3981 58.2973 19.2681 59.0973 19.4881 60.0173C19.7081 60.9373 20.1681 62.7073 19.2781 63.1573C18.3881 63.6073 16.7381 62.8273 16.1781 61.9473C15.6181 61.0673 15.3781 59.3173 16.3881 58.8073Z" fill="url(#paint5_linear_26_1411)" style="mix-blend-mode:plus-darker"/>
<path d="M27.1081 63.0473C25.9381 62.6873 24.6781 63.2173 24.1081 64.2973C23.4281 65.3073 23.6281 66.6573 24.5681 67.4273C25.0881 67.6473 26.2681 68.0773 27.5681 66.1773C28.3081 65.1973 28.1081 63.7973 27.1281 63.0573C27.1281 63.0573 27.1281 63.0573 27.1181 63.0573L27.1081 63.0473Z" fill="url(#paint6_linear_26_1411)" style="mix-blend-mode:plus-darker"/>
<path d="M9.64799 53.9473C10.498 53.4873 11.898 54.5273 12.608 55.2973C13.318 56.0673 13.308 57.9673 12.538 58.2973C11.358 58.4873 10.178 58.0173 9.43799 57.0873C8.85799 56.1973 8.80799 54.4073 9.64799 53.9473Z" fill="url(#paint7_linear_26_1411)" style="mix-blend-mode:plus-darker"/>
<g opacity="0.6">
<path d="M36.8679 52.3873C35.7879 52.3473 34.7279 52.0673 33.7679 51.5573L3.09793 33.7973C0.917926 32.5373 1.18793 30.3373 3.70793 28.8773L33.1679 11.8273C34.8579 10.9073 36.7779 10.4973 38.6979 10.6473H38.6779C39.7279 10.6973 40.7579 10.9773 41.6879 11.4773L72.3779 29.2273C74.5579 30.4873 74.2879 32.6973 71.7679 34.1573L42.3079 51.1973C40.8279 51.9973 39.1779 52.4173 37.4979 52.3973C37.2979 52.3973 37.0879 52.3973 36.8879 52.3873H36.8679ZM34.5379 11.8373L5.07793 28.8773C2.55793 30.3373 2.28793 32.5373 4.46793 33.7973L35.1479 51.5473C35.8979 51.9573 36.7179 52.2173 37.5679 52.3173C38.8079 52.1773 39.9979 51.7973 41.0879 51.1973L70.5479 34.1573C73.0679 32.6973 73.3379 30.4973 71.1579 29.2373L40.4779 11.4873C39.7279 11.0773 38.9079 10.8173 38.0579 10.7173C36.8279 10.8573 35.6279 11.2373 34.5479 11.8373H34.5379Z" fill="url(#paint8_linear_26_1411)" style="mix-blend-mode:plus-darker"/>
</g>
<g opacity="0.4">
<path d="M33.4181 51.7173L2.72805 33.9573C0.548053 32.6973 0.818053 30.4873 3.33805 29.0273L32.7981 11.9773C35.3181 10.5173 39.0881 11.7973 41.2681 13.0573L71.6281 30.4973C73.8081 31.7573 73.9081 32.8573 71.3881 34.3173L41.9281 51.3673C39.4081 52.8273 35.5981 52.9873 33.4181 51.7173Z" fill="url(#paint9_linear_26_1411)" style="mix-blend-mode:plus-darker"/>
</g>
<g opacity="0.6">
<path d="M36.8679 41.7573C35.7879 41.7173 34.7279 41.4373 33.7679 40.9273L3.09793 23.1773C0.917926 21.9173 1.18793 19.7073 3.70793 18.2573L33.1679 1.20727C34.8579 0.287266 36.7779 -0.112734 38.6979 0.0272659H38.6779C39.7279 0.0772659 40.7579 0.357266 41.6879 0.857266L72.3779 18.6073C74.5579 19.8673 74.2879 22.0773 71.7679 23.5273L42.3079 40.5673C40.8379 41.3673 39.1779 41.7873 37.4979 41.7673C37.2979 41.7673 37.0879 41.7673 36.8879 41.7473L36.8679 41.7573ZM34.5379 1.20727L5.07793 18.2473C2.55793 19.7073 2.28793 21.9073 4.46793 23.1673L35.1479 40.9173C35.8979 41.3273 36.7179 41.5873 37.5679 41.6873C38.8079 41.5473 39.9979 41.1673 41.0879 40.5673L70.5479 23.5273C73.0679 22.0673 73.3379 19.8673 71.1579 18.5973L40.4779 0.857266C39.7279 0.447266 38.9079 0.187266 38.0479 0.0872659C36.8179 0.227266 35.6179 0.607266 34.5379 1.20727Z" fill="url(#paint10_linear_26_1411)" style="mix-blend-mode:plus-darker"/>
</g>
<g opacity="0.85">
<path d="M37.1781 54.1473C35.8981 54.1873 34.6381 53.8973 33.5081 53.2973L3.06812 35.5373C2.17812 35.1273 1.60812 34.2373 1.61812 33.2473V23.2273C0.768119 22.3373 0.798119 20.9173 1.69812 20.0673C1.71812 20.0473 1.74812 20.0273 1.76812 20.0073L2.94812 22.3573C6.88812 24.6273 31.9481 38.9273 33.0181 39.5373C34.6481 40.2473 36.4081 40.6273 38.1881 40.6573C39.8681 40.6573 41.5281 40.2773 43.0381 39.5473C47.5681 37.3573 71.4381 22.5073 71.6781 22.3573C72.1581 21.7573 72.5581 21.0973 72.8681 20.3973C73.2581 21.0073 73.2981 21.7773 72.9681 22.4273L73.2581 23.0173V33.2573H73.2481C73.0381 34.4173 72.2681 35.4073 71.1881 35.8973L41.9581 52.9573C40.4981 53.7573 38.8481 54.1773 37.1781 54.1673V54.1473ZM39.0281 0.86727H35.5481C36.1381 0.76727 36.7381 0.71727 37.3381 0.71727C37.9081 0.71727 38.4781 0.76727 39.0381 0.86727H39.0281Z" fill="url(#paint11_linear_26_1411)" style="mix-blend-mode:plus-darker"/>
</g>
<path d="M73.978 21.4673L38.498 42.5873V54.3673L74.128 32.2073L73.978 21.4773V21.4673Z" fill="url(#paint12_linear_26_1411)" style="mix-blend-mode:plus-darker"/>
<path d="M27.108 40.1373C25.978 39.6373 24.658 40.1373 24.158 41.2773C24.138 41.3173 24.128 41.3573 24.108 41.3973C23.778 42.7073 23.798 44.1973 24.568 44.5273C25.338 44.8573 27.228 43.9773 27.568 43.2773C27.908 42.5773 27.808 40.7073 27.108 40.1473V40.1373Z" fill="url(#paint13_linear_26_1411)" style="mix-blend-mode:plus-darker"/>
<path d="M16.3881 35.8973C17.5681 35.7073 18.7481 36.1673 19.4881 37.1073C19.9981 37.9673 20.4081 39.7773 19.2781 40.2473C18.0881 40.6673 16.7681 40.1473 16.1781 39.0373C15.6981 37.9873 15.6681 36.2373 16.3881 35.8973Z" fill="url(#paint14_linear_26_1411)" style="mix-blend-mode:plus-darker"/>
<path d="M9.64812 31.0373C10.6881 30.4573 11.9981 30.8273 12.5781 31.8673C12.6481 31.9873 12.6981 32.1173 12.7481 32.2473C13.2681 33.4573 13.5081 34.8873 12.5381 35.3873C11.5681 35.8873 8.94812 33.5373 9.43812 34.1773C9.92812 34.8173 8.01812 31.6273 9.64812 31.0373Z" fill="url(#paint15_linear_26_1411)" style="mix-blend-mode:plus-darker"/>
<g opacity="0.4">
<path d="M33.7781 41.0173L3.08808 23.2573C0.898076 21.9973 1.17808 19.7873 3.69808 18.3273L33.1681 1.27726C35.6881 -0.182736 39.4981 -0.342736 41.6781 0.927264L72.3581 18.6873C74.5381 19.9473 74.2681 22.1573 71.7481 23.6173L42.2881 40.6673C39.7681 42.1273 35.9581 42.2873 33.7781 41.0173Z" fill="url(#paint16_linear_26_1411)" style="mix-blend-mode:plus-darker"/>
<path d="M33.7781 41.0173L3.08808 23.2573C0.898076 21.9973 1.17808 19.7873 3.69808 18.3273L33.1681 1.27726C35.6881 -0.182736 39.4981 -0.342736 41.6781 0.927264L72.3581 18.6873C74.5381 19.9473 74.2681 22.1573 71.7481 23.6173L42.2881 40.6673C39.7681 42.1273 35.9581 42.2873 33.7781 41.0173Z" stroke="#D0395F" stroke-width="0.07"/>
</g>
<g style="mix-blend-mode:overlay">
<path d="M34.778 29.1173L36.918 27.8673L39.058 29.1173L36.918 30.3673L34.778 29.1173ZM30.498 26.6173L32.638 25.3673L34.778 26.6173L32.638 27.8673L30.498 26.6173ZM39.068 26.6073L41.208 25.3573L43.348 26.6073L41.208 27.8573L39.068 26.6073ZM26.218 24.1173L28.358 22.8673L30.498 24.1173L28.358 25.3673L26.218 24.1173ZM34.798 24.1073L36.938 22.8573L39.078 24.1073L36.938 25.3573L34.798 24.1073ZM43.368 24.0973L45.508 22.8473L47.648 24.0973L45.508 25.3473L43.368 24.0973ZM30.518 21.6173L32.658 20.3673L34.798 21.6173L32.658 22.8673L30.518 21.6173ZM39.088 21.6073L41.228 20.3573L43.368 21.5973L41.228 22.8473L39.088 21.6073ZM21.138 21.5573L23.278 20.3173L25.418 21.5573L23.278 22.7973L21.138 21.5573ZM46.858 21.5273L48.998 20.2873L51.138 21.5273L48.998 22.7673L46.858 21.5273ZM17.668 19.1273L19.808 17.8773L21.948 19.1273L19.808 20.3773L17.668 19.1273ZM43.378 19.0973L45.518 17.8473L47.658 19.0973L45.518 20.3473L43.378 19.0973ZM51.958 19.0873L54.098 17.8373V20.3373L51.958 19.0873ZM25.438 19.0773L27.578 17.8373L29.718 19.0773L27.578 20.3173L25.438 19.0773ZM34.008 19.0673L36.148 17.8273L38.288 19.0673L36.148 20.3073L34.008 19.0673ZM21.958 16.6173L24.098 15.3673L26.238 16.6173L24.098 17.8673L21.958 16.6173ZM30.528 16.6073L32.668 15.3573L34.808 16.6073L32.668 17.8573L30.528 16.6073ZM47.678 16.5873L49.818 15.3373L51.958 16.5873L49.818 17.8373L47.678 16.5873ZM38.298 16.5773L40.438 15.3373L42.578 16.5773L40.438 17.8173L38.298 16.5773ZM26.248 14.1173L28.388 12.8673L30.528 14.1173L28.388 15.3673L26.248 14.1173ZM34.828 14.1073L36.968 12.8573L39.108 14.0973L36.968 15.3473L34.828 14.1073ZM43.398 14.0973L45.538 12.8473L47.678 14.0973L45.538 15.3473L43.398 14.0973ZM30.548 11.6073L32.688 10.3573L34.828 11.6073L32.688 12.8573L30.548 11.6073ZM39.118 11.5973L41.258 10.3473L43.398 11.5973L41.258 12.8473L39.118 11.5973ZM34.848 9.09726L36.988 7.84726L39.128 9.09726L36.988 10.3473L34.848 9.09726Z" fill="url(#paint17_linear_26_1411)" style="mix-blend-mode:plus-darker"/>
</g>
<defs>
<linearGradient id="paint0_linear_26_1411" x1="37.716" y1="22.9696" x2="37.716" y2="64.7749" gradientUnits="userSpaceOnUse">
<stop stop-color="#6AD0FF"/>
<stop offset="1" stop-color="#2BBDFF"/>
</linearGradient>
<linearGradient id="paint1_linear_26_1411" x1="37.2612" y1="35.6648" x2="37.2612" y2="76.9149" gradientUnits="userSpaceOnUse">
<stop stop-color="#6AD0FF"/>
<stop offset="1" stop-color="#2BBDFF"/>
</linearGradient>
<linearGradient id="paint2_linear_26_1411" x1="37.129" y1="23.6273" x2="37.129" y2="77.0708" gradientUnits="userSpaceOnUse">
<stop stop-color="#6AD0FF"/>
<stop offset="1" stop-color="#2BBDFF"/>
</linearGradient>
<linearGradient id="paint3_linear_26_1411" x1="56.313" y1="45.8173" x2="56.313" y2="76.7173" gradientUnits="userSpaceOnUse">
<stop stop-color="#6AD0FF"/>
<stop offset="1" stop-color="#2BBDFF"/>
</linearGradient>
<linearGradient id="paint4_linear_26_1411" x1="37.7379" y1="23.347" x2="37.7379" y2="65.128" gradientUnits="userSpaceOnUse">
<stop stop-color="#6AD0FF"/>
<stop offset="1" stop-color="#2BBDFF"/>
</linearGradient>
<linearGradient id="paint5_linear_26_1411" x1="17.7494" y1="58.6482" x2="17.7494" y2="63.2887" gradientUnits="userSpaceOnUse">
<stop stop-color="#6AD0FF"/>
<stop offset="1" stop-color="#2BBDFF"/>
</linearGradient>
<linearGradient id="paint6_linear_26_1411" x1="25.8604" y1="62.9351" x2="25.8604" y2="67.6298" gradientUnits="userSpaceOnUse">
<stop stop-color="#6AD0FF"/>
<stop offset="1" stop-color="#2BBDFF"/>
</linearGradient>
<linearGradient id="paint7_linear_26_1411" x1="11.0686" y1="53.834" x2="11.0686" y2="58.3389" gradientUnits="userSpaceOnUse">
<stop stop-color="#6AD0FF"/>
<stop offset="1" stop-color="#2BBDFF"/>
</linearGradient>
<linearGradient id="paint8_linear_26_1411" x1="37.7379" y1="10.617" x2="37.7379" y2="52.3979" gradientUnits="userSpaceOnUse">
<stop stop-color="#6AD0FF"/>
<stop offset="1" stop-color="#2BBDFF"/>
</linearGradient>
<linearGradient id="paint9_linear_26_1411" x1="37.263" y1="11.3269" x2="37.263" y2="52.5749" gradientUnits="userSpaceOnUse">
<stop stop-color="#6AD0FF"/>
<stop offset="1" stop-color="#2BBDFF"/>
</linearGradient>
<linearGradient id="paint10_linear_26_1411" x1="37.7379" y1="0" x2="37.7379" y2="41.7679" gradientUnits="userSpaceOnUse">
<stop stop-color="#6AD0FF"/>
<stop offset="1" stop-color="#2BBDFF"/>
</linearGradient>
<linearGradient id="paint11_linear_26_1411" x1="37.1297" y1="0.71727" x2="37.1297" y2="54.1674" gradientUnits="userSpaceOnUse">
<stop stop-color="#6AD0FF"/>
<stop offset="1" stop-color="#2BBDFF"/>
</linearGradient>
<linearGradient id="paint12_linear_26_1411" x1="56.313" y1="21.4673" x2="56.313" y2="54.3673" gradientUnits="userSpaceOnUse">
<stop stop-color="#6AD0FF"/>
<stop offset="1" stop-color="#2BBDFF"/>
</linearGradient>
<linearGradient id="paint13_linear_26_1411" x1="25.831" y1="39.9437" x2="25.831" y2="44.5988" gradientUnits="userSpaceOnUse">
<stop stop-color="#6AD0FF"/>
<stop offset="1" stop-color="#2BBDFF"/>
</linearGradient>
<linearGradient id="paint14_linear_26_1411" x1="17.9155" y1="35.8551" x2="17.9155" y2="40.3922" gradientUnits="userSpaceOnUse">
<stop stop-color="#6AD0FF"/>
<stop offset="1" stop-color="#2BBDFF"/>
</linearGradient>
<linearGradient id="paint15_linear_26_1411" x1="11.0889" y1="30.7631" x2="11.0889" y2="35.4577" gradientUnits="userSpaceOnUse">
<stop stop-color="#6AD0FF"/>
<stop offset="1" stop-color="#2BBDFF"/>
</linearGradient>
<linearGradient id="paint16_linear_26_1411" x1="37.721" y1="0.0695953" x2="37.721" y2="41.8749" gradientUnits="userSpaceOnUse">
<stop stop-color="#6AD0FF"/>
<stop offset="1" stop-color="#2BBDFF"/>
</linearGradient>
<linearGradient id="paint17_linear_26_1411" x1="35.883" y1="7.84726" x2="35.883" y2="30.3673" gradientUnits="userSpaceOnUse">
<stop stop-color="#6AD0FF"/>
<stop offset="1" stop-color="#2BBDFF"/>
</linearGradient>
</defs>
</svg>
