<svg width="75" height="78" viewBox="0 0 75 78" fill="none" xmlns="http://www.w3.org/2000/svg">
<g opacity="0.8">
<path d="M33.7781 63.9373L3.08808 46.1673C0.898076 44.9073 1.17808 42.6973 3.69808 41.2373L33.1581 24.1773C35.6781 22.7173 39.4881 22.5573 41.6681 23.8273L72.3481 41.5873C74.5281 42.8473 74.2581 45.0573 71.7381 46.5173L42.2781 63.5673C39.7581 65.0273 35.9481 65.1873 33.7681 63.9173L33.7781 63.9373Z" fill="url(#paint0_linear_29_2550)" style="mix-blend-mode:hard-light"/>
</g>
<g opacity="0.5">
<path d="M33.4181 76.0673L2.72805 58.2973C0.548053 57.0373 0.818053 54.8273 3.33805 53.3673L32.7981 36.3173C35.3181 34.8573 39.0881 36.1273 41.2681 37.3973L71.6281 54.8373C73.8081 56.0973 73.8981 57.1973 71.3881 58.6573L41.9281 75.7073C39.4081 77.1673 35.5981 77.3273 33.4181 76.0573V76.0673Z" fill="url(#paint1_linear_29_2550)" style="mix-blend-mode:plus-darker"/>
<path d="M33.4181 76.0673L2.72805 58.2973C0.548053 57.0373 0.818053 54.8273 3.33805 53.3673L32.7981 36.3173C35.3181 34.8573 39.0881 36.1273 41.2681 37.3973L71.6281 54.8373C73.8081 56.0973 73.8981 57.1973 71.3881 58.6573L41.9281 75.7073C39.4081 77.1673 35.5981 77.3273 33.4181 76.0573V76.0673Z" stroke="#B5C5CC"/>
</g>
<g opacity="0.7">
<path d="M37.178 77.0673C35.898 77.1073 34.638 76.8073 33.508 76.2173L3.06804 58.4473C2.17804 58.0373 1.60804 57.1473 1.61804 56.1573V46.1373C0.768039 45.2473 0.798039 43.8273 1.68804 42.9773C1.70804 42.9573 1.73804 42.9373 1.75804 42.9073L2.93804 45.2573C6.94804 47.5673 32.758 62.2873 33.018 62.4473C34.648 63.1573 36.408 63.5373 38.188 63.5573C39.868 63.5573 41.528 63.1773 43.038 62.4473C47.578 60.2573 71.438 45.4073 71.678 45.2573C72.158 44.6573 72.558 43.9973 72.868 43.2873C73.258 43.8973 73.298 44.6673 72.968 45.3173L73.258 45.9073V56.1473H73.248C73.038 57.3073 72.268 58.2973 71.188 58.7873L41.958 75.8473C40.498 76.6473 38.848 77.0673 37.178 77.0573V77.0673ZM39.028 23.7773H35.548C36.138 23.6773 36.738 23.6273 37.328 23.6273C37.898 23.6273 38.468 23.6773 39.028 23.7773Z" fill="url(#paint2_linear_29_2550)" style="mix-blend-mode:hard-light"/>
</g>
<path d="M73.978 45.8173L38.498 65.9373V76.7173L74.128 57.5573L73.978 45.8273V45.8173Z" fill="url(#paint3_linear_29_2550)" style="mix-blend-mode:plus-darker"/>
<g opacity="0.6">
<path d="M36.868 65.1073C35.788 65.0673 34.728 64.7873 33.768 64.2773L3.09805 46.5273C0.918048 45.2673 1.18805 43.0573 3.70805 41.6073L33.168 24.5573C34.858 23.6373 36.778 23.2273 38.698 23.3773H38.678C39.728 23.4273 40.758 23.7073 41.688 24.2073L72.3781 41.9573C74.5581 43.2173 74.288 45.4273 71.7681 46.8773L42.308 63.9273C40.828 64.7273 39.1781 65.1473 37.4981 65.1273C37.298 65.1273 37.098 65.1273 36.898 65.1173L36.868 65.1073ZM34.538 24.5573L5.07805 41.5973C2.55805 43.0573 2.28805 45.2573 4.46805 46.5173L35.148 64.2673C35.898 64.6773 36.7181 64.9373 37.5681 65.0373C38.798 64.8973 39.9981 64.5173 41.0881 63.9173L70.548 46.8773C73.068 45.4173 73.3381 43.2173 71.1581 41.9573L40.4781 24.2073C39.7281 23.7973 38.908 23.5373 38.058 23.4373C36.828 23.5773 35.6281 23.9573 34.548 24.5573H34.538Z" fill="url(#paint4_linear_29_2550)" style="mix-blend-mode:plus-darker"/>
</g>
<path d="M16.388 58.8073C17.398 58.2973 19.268 59.0973 19.488 60.0173C19.708 60.9373 20.168 62.7073 19.278 63.1573C18.388 63.6073 16.738 62.8273 16.178 61.9473C15.618 61.0673 15.378 59.3173 16.388 58.8073Z" fill="url(#paint5_linear_29_2550)" style="mix-blend-mode:plus-darker"/>
<path d="M27.108 63.0473C25.938 62.6873 24.678 63.2173 24.108 64.2973C23.428 65.3073 23.628 66.6573 24.568 67.4273C25.088 67.6473 26.268 68.0773 27.568 66.1773C28.308 65.1973 28.108 63.7973 27.128 63.0573C27.128 63.0573 27.128 63.0573 27.118 63.0573L27.108 63.0473Z" fill="url(#paint6_linear_29_2550)" style="mix-blend-mode:plus-darker"/>
<path d="M9.64799 53.9473C10.498 53.4873 11.898 54.5273 12.608 55.2973C13.318 56.0673 13.308 57.9673 12.538 58.2973C11.358 58.4873 10.178 58.0173 9.43799 57.0873C8.85799 56.1973 8.80799 54.4073 9.64799 53.9473Z" fill="url(#paint7_linear_29_2550)" style="mix-blend-mode:plus-darker"/>
<g opacity="0.6">
<path d="M36.868 52.3873C35.788 52.3473 34.728 52.0673 33.768 51.5573L3.09805 33.7973C0.918048 32.5373 1.18805 30.3373 3.70805 28.8773L33.168 11.8273C34.858 10.9073 36.778 10.4973 38.698 10.6473H38.678C39.728 10.6973 40.758 10.9773 41.688 11.4773L72.3781 29.2273C74.5581 30.4873 74.288 32.6973 71.7681 34.1573L42.308 51.1973C40.828 51.9973 39.1781 52.4173 37.4981 52.3973C37.298 52.3973 37.0881 52.3973 36.8881 52.3873H36.868ZM34.538 11.8373L5.07805 28.8773C2.55805 30.3373 2.28805 32.5373 4.46805 33.7973L35.148 51.5473C35.898 51.9573 36.7181 52.2173 37.5681 52.3173C38.8081 52.1773 39.9981 51.7973 41.0881 51.1973L70.548 34.1573C73.068 32.6973 73.3381 30.4973 71.1581 29.2373L40.4781 11.4873C39.7281 11.0773 38.908 10.8173 38.058 10.7173C36.828 10.8573 35.6281 11.2373 34.548 11.8373H34.538Z" fill="url(#paint8_linear_29_2550)" style="mix-blend-mode:plus-darker"/>
</g>
<g opacity="0.4">
<path d="M33.4181 51.7173L2.72805 33.9573C0.548053 32.6973 0.818053 30.4873 3.33805 29.0273L32.7981 11.9773C35.3181 10.5173 39.0881 11.7973 41.2681 13.0573L71.6281 30.4973C73.8081 31.7573 73.9081 32.8573 71.3881 34.3173L41.9281 51.3673C39.4081 52.8273 35.5981 52.9873 33.4181 51.7173Z" fill="url(#paint9_linear_29_2550)" style="mix-blend-mode:plus-darker"/>
</g>
<g opacity="0.6">
<path d="M36.868 41.7573C35.788 41.7173 34.728 41.4373 33.768 40.9273L3.09805 23.1773C0.918048 21.9173 1.18805 19.7073 3.70805 18.2573L33.168 1.20727C34.858 0.287266 36.778 -0.112734 38.698 0.0272659H38.678C39.728 0.0772659 40.758 0.357266 41.688 0.857266L72.3781 18.6073C74.5581 19.8673 74.288 22.0773 71.7681 23.5273L42.308 40.5673C40.838 41.3673 39.1781 41.7873 37.4981 41.7673C37.298 41.7673 37.0881 41.7673 36.8881 41.7473L36.868 41.7573ZM34.538 1.20727L5.07805 18.2473C2.55805 19.7073 2.28805 21.9073 4.46805 23.1673L35.148 40.9173C35.898 41.3273 36.7181 41.5873 37.5681 41.6873C38.8081 41.5473 39.9981 41.1673 41.0881 40.5673L70.548 23.5273C73.068 22.0673 73.3381 19.8673 71.1581 18.5973L40.4781 0.857266C39.7281 0.447266 38.9081 0.187266 38.048 0.0872659C36.8181 0.227266 35.618 0.607266 34.538 1.20727Z" fill="url(#paint10_linear_29_2550)" style="mix-blend-mode:plus-darker"/>
</g>
<g opacity="0.85">
<path d="M37.178 54.1473C35.898 54.1873 34.638 53.8973 33.508 53.2973L3.068 35.5373C2.178 35.1273 1.608 34.2373 1.618 33.2473V23.2273C0.767997 22.3373 0.797997 20.9173 1.698 20.0673C1.718 20.0473 1.748 20.0273 1.768 20.0073L2.948 22.3573C6.888 24.6273 31.948 38.9273 33.018 39.5373C34.648 40.2473 36.408 40.6273 38.188 40.6573C39.868 40.6573 41.528 40.2773 43.038 39.5473C47.568 37.3573 71.438 22.5073 71.678 22.3573C72.158 21.7573 72.558 21.0973 72.868 20.3973C73.258 21.0073 73.298 21.7773 72.968 22.4273L73.258 23.0173V33.2573H73.248C73.038 34.4173 72.268 35.4073 71.188 35.8973L41.958 52.9573C40.498 53.7573 38.848 54.1773 37.178 54.1673V54.1473ZM39.028 0.86727H35.548C36.138 0.76727 36.738 0.71727 37.338 0.71727C37.908 0.71727 38.478 0.76727 39.038 0.86727H39.028Z" fill="url(#paint11_linear_29_2550)" style="mix-blend-mode:hard-light"/>
</g>
<path d="M73.978 21.4673L38.498 42.5873V54.3673L74.128 32.2073L73.978 21.4773V21.4673Z" fill="url(#paint12_linear_29_2550)" style="mix-blend-mode:plus-darker"/>
<path d="M27.1081 40.1373C25.9781 39.6373 24.6581 40.1373 24.1581 41.2773C24.1381 41.3173 24.1281 41.3573 24.1081 41.3973C23.7781 42.7073 23.7981 44.1973 24.5681 44.5273C25.3381 44.8573 27.2281 43.9773 27.5681 43.2773C27.9081 42.5773 27.8081 40.7073 27.1081 40.1473V40.1373Z" fill="url(#paint13_linear_29_2550)" style="mix-blend-mode:plus-darker"/>
<path d="M16.388 35.8973C17.568 35.7073 18.748 36.1673 19.488 37.1073C19.998 37.9673 20.408 39.7773 19.278 40.2473C18.088 40.6673 16.768 40.1473 16.178 39.0373C15.698 37.9873 15.668 36.2373 16.388 35.8973Z" fill="url(#paint14_linear_29_2550)" style="mix-blend-mode:plus-darker"/>
<path d="M9.648 31.0373C10.688 30.4573 11.998 30.8273 12.578 31.8673C12.648 31.9873 12.698 32.1173 12.748 32.2473C13.268 33.4573 13.508 34.8873 12.538 35.3873C11.568 35.8873 8.948 33.5373 9.438 34.1773C9.928 34.8173 8.018 31.6273 9.648 31.0373Z" fill="url(#paint15_linear_29_2550)" style="mix-blend-mode:plus-darker"/>
<path d="M33.7781 41.0173L3.08808 23.2573C0.898076 21.9973 1.17808 19.7873 3.69808 18.3273L33.1681 1.27726C35.6881 -0.182736 39.4981 -0.342736 41.6781 0.927264L72.3581 18.6873C74.5381 19.9473 74.2681 22.1573 71.7481 23.6173L42.2881 40.6673C39.7681 42.1273 35.9581 42.2873 33.7781 41.0173Z" fill="url(#paint16_linear_29_2550)" style="mix-blend-mode:hard-light"/>
<path d="M33.7781 41.0173L3.08808 23.2573C0.898076 21.9973 1.17808 19.7873 3.69808 18.3273L33.1681 1.27726C35.6881 -0.182736 39.4981 -0.342736 41.6781 0.927264L72.3581 18.6873C74.5381 19.9473 74.2681 22.1573 71.7481 23.6173L42.2881 40.6673C39.7681 42.1273 35.9581 42.2873 33.7781 41.0173Z" stroke="#D0395F" stroke-width="0.07"/>
<g style="mix-blend-mode:overlay">
<path d="M34.7781 29.1173L36.9181 27.8673L39.0581 29.1173L36.9181 30.3673L34.7781 29.1173ZM30.4981 26.6173L32.6381 25.3673L34.7781 26.6173L32.6381 27.8673L30.4981 26.6173ZM39.0681 26.6073L41.2081 25.3573L43.3481 26.6073L41.2081 27.8573L39.0681 26.6073ZM26.2181 24.1173L28.3581 22.8673L30.4981 24.1173L28.3581 25.3673L26.2181 24.1173ZM34.7981 24.1073L36.9381 22.8573L39.0781 24.1073L36.9381 25.3573L34.7981 24.1073ZM43.3681 24.0973L45.5081 22.8473L47.6481 24.0973L45.5081 25.3473L43.3681 24.0973ZM30.5181 21.6173L32.6581 20.3673L34.7981 21.6173L32.6581 22.8673L30.5181 21.6173ZM39.0881 21.6073L41.2281 20.3573L43.3681 21.5973L41.2281 22.8473L39.0881 21.6073ZM21.1381 21.5573L23.2781 20.3173L25.4181 21.5573L23.2781 22.7973L21.1381 21.5573ZM46.8581 21.5273L48.9981 20.2873L51.1381 21.5273L48.9981 22.7673L46.8581 21.5273ZM17.6681 19.1273L19.8081 17.8773L21.9481 19.1273L19.8081 20.3773L17.6681 19.1273ZM43.3781 19.0973L45.5181 17.8473L47.6581 19.0973L45.5181 20.3473L43.3781 19.0973ZM51.9581 19.0873L54.0981 17.8373V20.3373L51.9581 19.0873ZM25.4381 19.0773L27.5781 17.8373L29.7181 19.0773L27.5781 20.3173L25.4381 19.0773ZM34.0081 19.0673L36.1481 17.8273L38.2881 19.0673L36.1481 20.3073L34.0081 19.0673ZM21.9581 16.6173L24.0981 15.3673L26.2381 16.6173L24.0981 17.8673L21.9581 16.6173ZM30.5281 16.6073L32.6681 15.3573L34.8081 16.6073L32.6681 17.8573L30.5281 16.6073ZM47.6781 16.5873L49.8181 15.3373L51.9581 16.5873L49.8181 17.8373L47.6781 16.5873ZM38.2981 16.5773L40.4381 15.3373L42.5781 16.5773L40.4381 17.8173L38.2981 16.5773ZM26.2481 14.1173L28.3881 12.8673L30.5281 14.1173L28.3881 15.3673L26.2481 14.1173ZM34.8281 14.1073L36.9681 12.8573L39.1081 14.0973L36.9681 15.3473L34.8281 14.1073ZM43.3981 14.0973L45.5381 12.8473L47.6781 14.0973L45.5381 15.3473L43.3981 14.0973ZM30.5481 11.6073L32.6881 10.3573L34.8281 11.6073L32.6881 12.8573L30.5481 11.6073ZM39.1181 11.5973L41.2581 10.3473L43.3981 11.5973L41.2581 12.8473L39.1181 11.5973ZM34.8481 9.09726L36.9881 7.84726L39.1281 9.09726L36.9881 10.3473L34.8481 9.09726Z" fill="url(#paint17_linear_29_2550)" style="mix-blend-mode:plus-darker"/>
</g>
<defs>
<linearGradient id="paint0_linear_29_2550" x1="37.716" y1="22.9696" x2="37.716" y2="64.7749" gradientUnits="userSpaceOnUse">
<stop stop-color="#6AD0FF"/>
<stop offset="1" stop-color="#2BBDFF"/>
</linearGradient>
<linearGradient id="paint1_linear_29_2550" x1="37.2612" y1="35.6648" x2="37.2612" y2="76.9149" gradientUnits="userSpaceOnUse">
<stop stop-color="#6AD0FF"/>
<stop offset="1" stop-color="#2BBDFF"/>
</linearGradient>
<linearGradient id="paint2_linear_29_2550" x1="37.129" y1="23.6273" x2="37.129" y2="77.0708" gradientUnits="userSpaceOnUse">
<stop stop-color="#6AD0FF"/>
<stop offset="1" stop-color="#2BBDFF"/>
</linearGradient>
<linearGradient id="paint3_linear_29_2550" x1="56.313" y1="45.8173" x2="56.313" y2="76.7173" gradientUnits="userSpaceOnUse">
<stop stop-color="#6AD0FF"/>
<stop offset="1" stop-color="#2BBDFF"/>
</linearGradient>
<linearGradient id="paint4_linear_29_2550" x1="37.738" y1="23.347" x2="37.738" y2="65.128" gradientUnits="userSpaceOnUse">
<stop stop-color="#6AD0FF"/>
<stop offset="1" stop-color="#2BBDFF"/>
</linearGradient>
<linearGradient id="paint5_linear_29_2550" x1="17.7493" y1="58.6482" x2="17.7493" y2="63.2887" gradientUnits="userSpaceOnUse">
<stop stop-color="#6AD0FF"/>
<stop offset="1" stop-color="#2BBDFF"/>
</linearGradient>
<linearGradient id="paint6_linear_29_2550" x1="25.8603" y1="62.9351" x2="25.8603" y2="67.6298" gradientUnits="userSpaceOnUse">
<stop stop-color="#6AD0FF"/>
<stop offset="1" stop-color="#2BBDFF"/>
</linearGradient>
<linearGradient id="paint7_linear_29_2550" x1="11.0686" y1="53.834" x2="11.0686" y2="58.3389" gradientUnits="userSpaceOnUse">
<stop stop-color="#6AD0FF"/>
<stop offset="1" stop-color="#2BBDFF"/>
</linearGradient>
<linearGradient id="paint8_linear_29_2550" x1="37.738" y1="10.617" x2="37.738" y2="52.3979" gradientUnits="userSpaceOnUse">
<stop stop-color="#6AD0FF"/>
<stop offset="1" stop-color="#2BBDFF"/>
</linearGradient>
<linearGradient id="paint9_linear_29_2550" x1="37.263" y1="11.3269" x2="37.263" y2="52.5749" gradientUnits="userSpaceOnUse">
<stop stop-color="#6AD0FF"/>
<stop offset="1" stop-color="#2BBDFF"/>
</linearGradient>
<linearGradient id="paint10_linear_29_2550" x1="37.738" y1="0" x2="37.738" y2="41.7679" gradientUnits="userSpaceOnUse">
<stop stop-color="#6AD0FF"/>
<stop offset="1" stop-color="#2BBDFF"/>
</linearGradient>
<linearGradient id="paint11_linear_29_2550" x1="37.1295" y1="0.71727" x2="37.1295" y2="54.1674" gradientUnits="userSpaceOnUse">
<stop stop-color="#6AD0FF"/>
<stop offset="1" stop-color="#2BBDFF"/>
</linearGradient>
<linearGradient id="paint12_linear_29_2550" x1="56.313" y1="21.4673" x2="56.313" y2="54.3673" gradientUnits="userSpaceOnUse">
<stop stop-color="#6AD0FF"/>
<stop offset="1" stop-color="#2BBDFF"/>
</linearGradient>
<linearGradient id="paint13_linear_29_2550" x1="25.8311" y1="39.9437" x2="25.8311" y2="44.5988" gradientUnits="userSpaceOnUse">
<stop stop-color="#6AD0FF"/>
<stop offset="1" stop-color="#2BBDFF"/>
</linearGradient>
<linearGradient id="paint14_linear_29_2550" x1="17.9153" y1="35.8551" x2="17.9153" y2="40.3922" gradientUnits="userSpaceOnUse">
<stop stop-color="#6AD0FF"/>
<stop offset="1" stop-color="#2BBDFF"/>
</linearGradient>
<linearGradient id="paint15_linear_29_2550" x1="11.0888" y1="30.7631" x2="11.0888" y2="35.4577" gradientUnits="userSpaceOnUse">
<stop stop-color="#6AD0FF"/>
<stop offset="1" stop-color="#2BBDFF"/>
</linearGradient>
<linearGradient id="paint16_linear_29_2550" x1="37.721" y1="0.0695953" x2="37.721" y2="41.8749" gradientUnits="userSpaceOnUse">
<stop stop-color="#6AD0FF"/>
<stop offset="1" stop-color="#2BBDFF"/>
</linearGradient>
<linearGradient id="paint17_linear_29_2550" x1="35.8831" y1="7.84726" x2="35.8831" y2="30.3673" gradientUnits="userSpaceOnUse">
<stop stop-color="#6AD0FF"/>
<stop offset="1" stop-color="#2BBDFF"/>
</linearGradient>
</defs>
</svg>
