<svg preserveAspectRatio="none" width="100%" height="100%" overflow="visible" style="display: block;" viewBox="0 0 382 41" fill="none" xmlns="http://www.w3.org/2000/svg">
<path id="line" d="M1 25.5C1.33333 19.1667 4.5 8.99999 10 8.99998C18.1394 8.99998 13.0987 36.6112 21 29.5C31 20.5 38.7896 31.8011 43.5 25.5C49.3234 17.7101 52.4594 0.999999 55.5 1C61 1 55.184 13.7989 66.5 21C72 24.5 73.5391 16.755 81.5 10.5C88.5 4.99999 81.5 46.5 100.5 22.5C108.879 11.9154 102.5 66 135 22.5C141.285 14.0884 144.5 29.5 152.5 29.5C160.5 29.5 163.5 10.5 172.5 10.5C181.5 10.5 175.5 35.5 181 35.5C186.5 35.5 187.5 29 198 25.5C208.5 22 207 16 220.5 16C234 16 225 29.5 234 29.5C243 29.5 233.5 20 241 20.5C248.5 21 243.5 29.5 250 29.5C256.5 29.5 254 30.5 265.5 25.5C277 20.5 271.5 16 279.5 16C287.5 16 286 29.5 293 29.5C300 29.5 300 45.5 308.5 35.5C317 25.5 323 25 327.5 20.5C332 16 337 15.5 346 20.5C355 25.5 363.5 33.5 368.5 29.5C373.5 25.5 377.5 25 381 20.5" stroke="var(--stroke-0, #CA3437)" stroke-width="2"/>
</svg>
