<svg preserveAspectRatio="none" width="100%" height="100%" overflow="visible" style="display: block;" viewBox="0 0 115 26" fill="none" xmlns="http://www.w3.org/2000/svg">
<g id="bi">
<path d="M15.0559 23.4946C15.0559 23.4946 15.2792 23.7483 15.4078 23.8168C15.6108 23.9265 15.8476 23.9334 15.9559 23.8648C16.1183 23.7688 17.3701 23.0421 17.3701 23.0421L21.2068 20.7934C22.3775 20.1079 23.1083 18.8258 23.1083 17.4547V8.38456C23.1083 7.01341 22.3775 5.73139 21.2068 5.04582L13.459 0.51418C12.2883 -0.171393 10.8267 -0.171393 9.64931 0.51418L1.90144 5.05267C0.730803 5.73825 0 7.02027 0 8.39141V17.4615C0 18.8327 0.730803 20.1147 1.90144 20.8003L9.65608 25.3319C10.238 25.6679 10.8944 25.8461 11.5575 25.8461C11.95 25.8461 12.3289 25.7638 12.6943 25.6404C12.7688 25.613 12.7958 25.5856 12.8229 25.5239C12.8432 25.469 12.8364 25.3936 12.8229 25.3662C12.8094 25.3388 12.7688 25.2634 12.7688 25.2634L11.7267 23.1929C11.6184 22.9873 11.2598 22.7816 11.138 22.713L3.39011 18.1814C3.13298 18.0306 2.97735 17.7495 2.97735 17.4547V10.5373H11.0771C11.2936 10.5373 11.4966 10.5373 11.6996 10.5373C11.9026 10.5373 12.1056 10.5441 12.3086 10.551C12.5861 10.5715 12.8432 10.6401 13.0868 10.7566C13.3236 10.88 13.5266 11.0309 13.7026 11.2228C13.8717 11.4148 14.0071 11.6342 14.1018 11.8741C14.1965 12.1209 14.2439 12.3677 14.2439 12.6283C14.2439 12.8888 14.1965 13.1561 14.1086 13.403C14.0138 13.6498 13.8853 13.8623 13.7229 14.0542C13.5537 14.2462 13.3575 14.397 13.1206 14.5136C12.8838 14.6301 12.6267 14.6918 12.3492 14.7124C12.2274 14.7261 12.1192 14.733 12.0177 14.733H10.847L14.4063 22.1577C14.4063 22.1577 14.9815 23.3163 15.0694 23.4946H15.0559ZM20.1377 17.4547C20.1377 17.7563 19.9753 18.0306 19.7249 18.1814L16.3957 20.4027L14.5958 16.4195C14.9341 16.2412 15.2454 16.015 15.5228 15.7545C15.8002 15.494 16.0438 15.1992 16.2468 14.8701C16.4498 14.541 16.6055 14.1914 16.7205 13.8143C16.8355 13.4372 16.8897 13.0396 16.8897 12.6214C16.8897 12.025 16.7746 11.4628 16.5581 10.928C16.3348 10.4001 16.0303 9.93395 15.6378 9.54318C15.2521 9.1524 14.792 8.84389 14.271 8.6108C13.7499 8.38456 13.1883 8.26801 12.5861 8.26801L2.83525 8.24059C2.83525 8.24059 2.82171 8.12404 2.84201 8.08291C2.86231 8.04177 2.93675 7.97322 2.93675 7.97322L11.1515 3.11936C11.2801 3.04394 11.4222 3.00967 11.5643 3.00967C11.7064 3.00967 11.8485 3.04394 11.9771 3.11936L19.7249 7.651C19.9821 7.80182 20.1377 8.08291 20.1377 8.3777V17.4547Z" fill="var(--fill-0, #502EE9)"/>
<path d="M37.7514 19.5251L35.2274 14.4793C35.5996 14.2805 35.9312 14.0405 36.2357 13.7595C36.5402 13.4715 36.8041 13.1561 37.0206 12.7997C37.2371 12.4432 37.4131 12.0592 37.5349 11.6479C37.6567 11.2365 37.7176 10.8046 37.7176 10.3522C37.7176 9.70086 37.5958 9.0907 37.3522 8.51482C37.1086 7.93894 36.777 7.43847 36.3507 7.01341C35.9244 6.58836 35.4304 6.25243 34.862 5.99876C34.2936 5.75196 33.6778 5.6217 33.0282 5.6217H27.0871C26.8029 5.6217 26.6608 5.77938 26.6608 6.08103V7.65785C26.6608 7.80182 26.7014 7.91151 26.7758 7.98007C26.8502 8.04863 26.9585 8.08291 27.0871 8.08291H31.3975C31.6275 8.08291 31.8576 8.08291 32.0741 8.08291C32.2907 8.08291 32.514 8.08976 32.7373 8.09662C33.0418 8.11719 33.3192 8.1926 33.5831 8.32286C33.8402 8.45312 34.0635 8.62451 34.253 8.83018C34.4425 9.03585 34.5846 9.27581 34.6929 9.54318C34.7944 9.81055 34.8485 10.0779 34.8485 10.359C34.8485 10.6401 34.8011 10.9349 34.6996 11.1954C34.5981 11.4628 34.456 11.6959 34.2801 11.9016C34.0974 12.1072 33.8808 12.2718 33.6237 12.3952C33.3666 12.5186 33.0891 12.594 32.7846 12.6077C32.6561 12.6214 32.5343 12.6283 32.4192 12.6283H31.2283L34.8147 19.8473C34.8959 20.0873 35.0447 20.2107 35.2816 20.2107H37.5349C37.7582 20.2107 37.8732 20.1147 37.8732 19.9159C37.8732 19.8405 37.8597 19.7719 37.8258 19.7102C37.792 19.6485 37.7717 19.58 37.7582 19.5114L37.7514 19.5251Z" fill="var(--fill-0, #502EE9)"/>
<path d="M50.1886 17.5301H43.0362V13.9583H48.3751C48.5172 13.9583 48.6187 13.9103 48.6864 13.8212C48.754 13.732 48.7811 13.6223 48.7811 13.5058V11.7233C48.7811 11.5588 48.7405 11.4422 48.6661 11.3737C48.5849 11.3051 48.4834 11.2777 48.3548 11.2914H43.0362V8.30915H49.9382C50.1006 8.30915 50.2224 8.26116 50.3036 8.17203C50.3848 8.07605 50.4254 7.97322 50.4254 7.85667V6.12217C50.4254 5.9782 50.3916 5.85479 50.3172 5.75881C50.2427 5.66283 50.1277 5.61484 49.9585 5.61484H40.6002C40.316 5.61484 40.1739 5.77253 40.1739 6.08789V19.8062C40.1739 19.9502 40.2145 20.053 40.3024 20.1216C40.3836 20.1901 40.4851 20.2176 40.6002 20.2176H50.2089C50.4931 20.2176 50.6352 20.0804 50.6352 19.8062V18.01C50.6352 17.8455 50.6081 17.7221 50.5472 17.6467C50.4863 17.5644 50.3713 17.5301 50.1886 17.5301Z" fill="var(--fill-0, #502EE9)"/>
<path d="M64.9806 5.61484H63.1062C62.9979 5.61484 62.9032 5.64912 62.822 5.71082C62.7408 5.77938 62.6934 5.86851 62.6731 5.98505V15.4048C61.5634 13.8074 60.4672 12.2169 59.3845 10.6401C58.2951 9.06328 57.1989 7.47275 56.0959 5.87536C56.0282 5.78624 55.9606 5.71768 55.8794 5.67655C55.7982 5.63541 55.7102 5.61484 55.6222 5.61484H53.3892C53.2539 5.61484 53.1456 5.65598 53.0712 5.7451C52.9968 5.82737 52.9629 5.93706 52.9629 6.06047V19.7994C52.9629 19.9296 52.9968 20.0324 53.0644 20.1079C53.1321 20.1833 53.2404 20.2176 53.3892 20.2176H55.2501C55.4125 20.2176 55.5275 20.1833 55.5952 20.1079C55.6628 20.0393 55.6967 19.9296 55.6967 19.7856V9.92024C56.8267 11.5999 57.9568 13.2727 59.0868 14.9386C60.2168 16.6046 61.3469 18.2774 62.4904 19.9502C62.6122 20.1284 62.7476 20.2176 62.8897 20.2176H64.9941C65.2986 20.2176 65.4475 20.0804 65.4475 19.8131V6.04675C65.4475 5.9165 65.4001 5.81366 65.3054 5.73139C65.2107 5.64912 65.1024 5.61484 64.9738 5.61484H64.9806Z" fill="var(--fill-0, #502EE9)"/>
<path d="M81.8364 9.13869C81.5184 8.58338 81.1327 8.07605 80.6793 7.61672C80.226 7.15738 79.7252 6.76661 79.1771 6.44439C78.629 6.12217 78.0335 5.86851 77.4042 5.69026C76.7749 5.51201 76.1186 5.42288 75.4419 5.42288C74.7652 5.42288 74.0953 5.51201 73.466 5.69026C72.8367 5.86851 72.248 6.12217 71.6931 6.44439C71.145 6.76661 70.6443 7.15738 70.1909 7.61672C69.7443 8.07605 69.3519 8.58338 69.0338 9.13869C68.709 9.694 68.4587 10.2973 68.2827 10.9417C68.1068 11.5862 68.0188 12.2512 68.0188 12.9368C68.0188 13.6223 68.1068 14.3011 68.2827 14.9386C68.4587 15.5762 68.7023 16.1727 69.0271 16.728C69.3451 17.2833 69.7308 17.7838 70.1842 18.2431C70.6308 18.6956 71.1315 19.0932 71.6864 19.4154C72.2345 19.7445 72.8299 19.9982 73.4593 20.1764C74.0886 20.3547 74.7517 20.4438 75.4351 20.4438C76.1186 20.4438 76.7817 20.3547 77.411 20.1764C78.0403 19.9982 78.629 19.7514 79.1839 19.4223C79.732 19.1001 80.2327 18.7093 80.6861 18.25C81.1394 17.7975 81.5252 17.2902 81.8432 16.728C82.1612 16.1727 82.4116 15.5762 82.5875 14.9386C82.7635 14.3011 82.8514 13.636 82.8514 12.9436C82.8514 12.2512 82.7635 11.5793 82.5875 10.9349C82.4116 10.2905 82.1612 9.694 81.8432 9.13183L81.8364 9.13869ZM79.6711 14.7741C79.4342 15.35 79.1094 15.8505 78.6967 16.2824C78.2839 16.7074 77.7967 17.0433 77.2351 17.297C76.6734 17.5438 76.0712 17.6741 75.4216 17.6741C74.772 17.6741 74.163 17.5507 73.6013 17.297C73.0397 17.0502 72.5593 16.7074 72.1465 16.2824C71.7337 15.8573 71.4089 15.3568 71.1789 14.7741C70.942 14.1982 70.827 13.5812 70.827 12.9162C70.827 12.2512 70.942 11.641 71.1789 11.0652C71.4157 10.4893 71.7405 9.98194 72.1465 9.55689C72.5593 9.12498 73.0397 8.78905 73.6013 8.54224C74.163 8.29543 74.7652 8.16518 75.4216 8.16518C76.078 8.16518 76.6734 8.28858 77.2351 8.54224C77.7967 8.78905 78.2839 9.13183 78.6967 9.55689C79.1094 9.9888 79.4342 10.4893 79.6711 11.0652C79.9079 11.641 80.0229 12.258 80.0229 12.9162C80.0229 13.5743 79.9011 14.1982 79.6711 14.7741Z" fill="var(--fill-0, #502EE9)"/>
<path d="M96.1548 13.9171C95.9991 13.6223 95.8164 13.3481 95.6066 13.0944C95.3901 12.8408 95.1533 12.6145 94.8894 12.4157C95.2209 12.0661 95.4781 11.6616 95.6675 11.2091C95.857 10.7498 95.9518 10.2562 95.9518 9.72143C95.9518 9.14555 95.8435 8.60394 95.6337 8.11033C95.424 7.60986 95.133 7.17795 94.7676 6.8146C94.4022 6.44439 93.9691 6.15645 93.4751 5.94392C92.9812 5.73139 92.4534 5.6217 91.8917 5.6217H85.822C85.531 5.6217 85.3822 5.77938 85.3822 6.08103V19.7994C85.3822 19.9433 85.4228 20.053 85.504 20.1216C85.5852 20.1901 85.6867 20.2244 85.822 20.2244H92.5007C93.0759 20.2244 93.6172 20.1079 94.1247 19.8748C94.6323 19.6417 95.0653 19.3263 95.4375 18.9287C95.8096 18.531 96.1006 18.0649 96.3239 17.5438C96.5405 17.0228 96.6487 16.4675 96.6487 15.8847C96.6487 15.5351 96.6081 15.1992 96.5201 14.8632C96.4322 14.5341 96.3172 14.2188 96.1615 13.924L96.1548 13.9171ZM88.1904 8.00749H91.3707C91.6278 8.00749 91.8714 8.05548 92.088 8.13775C92.3045 8.22688 92.494 8.35028 92.6496 8.50796C92.8052 8.66564 92.927 8.85075 93.015 9.07013C93.103 9.28952 93.1436 9.52261 93.1436 9.76942C93.1436 10.0162 93.0962 10.263 93.0082 10.4824C92.9203 10.7018 92.7917 10.8938 92.6361 11.0514C92.4804 11.2091 92.2842 11.3394 92.0677 11.4285C91.8444 11.5176 91.6075 11.5656 91.3504 11.5656H88.1971V8.00749H88.1904ZM93.6511 16.488C93.5766 16.7074 93.4616 16.9062 93.3263 17.0845C93.1842 17.2627 93.0218 17.4067 92.8323 17.5301C92.6428 17.6467 92.4398 17.7221 92.2233 17.7563C92.0947 17.7838 91.9662 17.7975 91.8376 17.8112C91.709 17.8249 91.5737 17.8249 91.4384 17.8249H88.1904V13.8349H91.4384C91.5737 13.8349 91.709 13.8417 91.8444 13.8623C91.9797 13.876 92.1083 13.8966 92.2368 13.9171C92.4601 13.9583 92.6631 14.0337 92.8526 14.1502C93.0421 14.2668 93.2045 14.4039 93.3398 14.5753C93.4751 14.7467 93.5834 14.9386 93.6578 15.1512C93.739 15.3637 93.7729 15.5831 93.7729 15.8025C93.7729 16.0424 93.7323 16.2755 93.6578 16.4949L93.6511 16.488Z" fill="var(--fill-0, #502EE9)"/>
<path d="M101.182 5.61484H99.2539C99.1118 5.61484 99.0035 5.65598 98.9359 5.7451C98.8614 5.82737 98.8276 5.93021 98.8276 6.04675V19.7856C98.8276 20.0736 98.9697 20.2176 99.2539 20.2176H101.182C101.487 20.2176 101.636 20.0736 101.636 19.7856V6.04675C101.636 5.9165 101.588 5.81366 101.494 5.73139C101.399 5.64912 101.291 5.61484 101.182 5.61484Z" fill="var(--fill-0, #502EE9)"/>
<path d="M114.838 5.72454C114.743 5.64912 114.641 5.61484 114.52 5.61484H104.309C104.18 5.61484 104.072 5.65598 103.991 5.73139C103.909 5.8068 103.862 5.9165 103.862 6.04675V7.76754C103.862 7.93208 103.903 8.05548 103.991 8.13775C104.072 8.22002 104.18 8.26116 104.309 8.26116H108.003V19.7651C108.003 19.8953 108.051 20.005 108.145 20.0873C108.24 20.1696 108.342 20.2176 108.463 20.2176H110.378C110.52 20.2176 110.629 20.1696 110.71 20.0804C110.791 19.9913 110.832 19.8816 110.832 19.7651V8.26116H114.52C114.675 8.26116 114.79 8.21317 114.871 8.11033C114.953 8.01435 114.993 7.8978 114.993 7.76754V6.04675C114.98 5.90278 114.926 5.79309 114.831 5.72454H114.838Z" fill="var(--fill-0, #502EE9)"/>
</g>
</svg>
