<svg preserveAspectRatio="none" width="100%" height="100%" overflow="visible" style="display: block;" viewBox="0 0 468 49" fill="none" xmlns="http://www.w3.org/2000/svg">
<g id="line">
<path id="Vector 3" d="M2 5.23312C2.66381 5.44434 5.8833 5.74006 13.4507 5.23312C22.9101 4.59944 22.9101 2.69841 31.8715 2.59279C40.833 2.48718 41.8287 3.33208 47.3051 4.2826C52.7816 5.23312 57.2623 9.03518 68.7131 7.13415C80.1638 5.23312 89.6231 -0.998057 105.057 1.64227C120.49 4.2826 122.98 8.82396 132.439 7.97906C141.898 7.13415 149.366 4.2826 156.834 5.23312C164.302 6.18364 164.8 9.03518 173.263 7.13415C181.727 5.23312 180.731 5.23312 189.693 5.23312C198.654 5.23312 193.676 7.97906 203.633 7.97906C213.59 7.97906 207.118 5.23312 219.066 5.23312C231.015 5.23312 230.019 8.82396 237.985 7.97906C245.951 7.13415 248.44 5.8668 257.899 6.18364C267.359 6.50047 269.35 7.97906 274.827 7.97906C280.303 7.97906 279.805 6.18364 290.758 6.18364C301.711 6.18364 300.024 5.23312 305.5 5.23312C310.976 5.23312 314.792 4.91399 320.63 6.18364C325 7.13415 326.5 7.97906 332 7.97906C337 7.97906 340 6.18364 344.029 6.18364C348.058 6.18364 350.003 5.23312 360.956 5.23312C365.437 5.23312 369.019 5.86679 373.5 5.23312C377.981 4.59944 385.528 4.91628 392 5.23312C397.5 5.50237 402.5 7.66222 406.759 7.66222C415.223 7.66222 419.703 6.39486 428.665 6.74224C441.091 7.22391 441.609 9.66886 447.086 8.82396C452.562 7.97906 462.519 8.82396 467 8.82396" stroke="var(--stroke-0, #122023)" stroke-width="2"/>
<path id="Vector 4" d="M2.5 18.4978C14 18.4978 11.5 14.4705 19.5 15.2759C27.5 16.0814 19.5 18.4978 30 18.4978C51 16.8869 46.5 22.0418 57.5 20.2698C79.5 18.4978 75 22.8473 84.5 21.5585C94 20.2698 92 17.5312 100 17.209C108 16.8869 106.5 15.2759 114.5 15.2759C122.5 15.2759 121.5 18 125.5 18C129.5 18 136 21.5585 144 21.5585C152 21.5585 156 18.981 164 20.2698C170.4 21.3008 181.333 21.5585 186 21.5585C186.167 21.1289 188.7 20.2698 197.5 20.2698C208.5 20.2698 212 21.5585 218.5 21.5585C225 21.5585 235 22.8473 244.5 21.5585C254 20.2698 257 23.1694 266.5 23.1694C276 23.1694 271 21.5585 282 21.5585C293 21.5585 293.5 16.5 304 16.5C314.5 16.5 318.5 21.5585 322.5 21.5585C326.5 21.5585 331 22.0418 340 20.2698C349 18.4978 357.5 15.2759 367 15.2759C376.5 15.2759 381.5 15.2759 392 15.2759C402.5 15.2759 397 17.209 414 17.209C431 17.209 430 19.1421 441.5 17.209C453 15.2759 460 15.2759 467 15.2759" stroke="var(--stroke-0, #A285FF)" stroke-width="2"/>
<path id="Vector 5" d="M1 31.6104C2.84322 31.6104 8.33937 31.6104 15.5782 31.6104C24.6268 31.6104 23.1187 30.1608 32.1672 30.1608C36.866 30.1608 37.6969 31.6104 43.2265 31.6104C48.7562 31.6104 57.6037 30.1608 64.8425 30.1608C72.0813 30.1608 73.891 31.0668 80.9288 30.1608C84.4477 29.436 89.4746 28.3488 95.507 28.3488C102.5 28.3488 107.465 30.7044 114 30.1608C120.535 29.6172 122.653 28.3488 127.68 28.3488C132.707 28.3488 132.204 31.6104 139.242 31.6104C146.279 31.6104 149.978 28.3488 154 28.3488C157.217 28.3488 161.863 29.9192 166.89 31.6104C168.23 31.7312 172.721 31.6104 179.96 30.1608C189.009 28.3488 195.61 29.3688 199.565 30.1608C204.09 31.0668 204.09 33.06 215.652 31.6104C227.214 30.1608 234.013 28.957 237.77 30.1608C242.295 31.6104 244.305 32.5164 251.846 32.5164C263.408 32.5164 263.91 30.1608 267.932 30.1608C271.954 30.1608 273.964 31.6104 282.008 31.6104C290.051 31.6104 292.135 29.724 296.586 28.3488C300.105 27.2616 307.645 26.5368 313.175 27.2616C318.704 27.9864 322.525 30.1608 329.764 30.1608C338.812 30.1608 340.633 28.6172 343.337 27.8052C346.353 26.8992 353.893 24 360.931 24C368.503 24 369.778 25.9932 375.006 28.3488C379.028 30.1608 384.457 28.3488 388.077 28.3488C394.612 28.3488 398.131 26.5368 403.158 26.5368C408.184 26.5368 408.687 24 414.217 24C418.641 24 419.244 25.9932 422.763 27.2616C426.282 28.1072 433.319 28.5663 435.33 26.5368C439.352 24.5436 442.368 26.5368 449.908 26.5368C453.595 26.718 458.957 27.2616 461.973 25.9932C463.628 25.2971 465.659 24.302 467 24" stroke="var(--stroke-0, #39A4FF)" stroke-width="2"/>
<path id="Vector 7" d="M0 45H28.333C36.7654 45 55.0469 45 60.7135 45C67.7968 45 81.4573 45 100.683 45C119.909 45 158.361 48.2204 172.528 46.7849C186.694 45.3495 237.795 45 247.914 45C258.032 45 309.375 45 320 45C330.625 45 386.875 47.7849 397.5 47.7849C408.125 47.7849 464.964 45 468 45" stroke="var(--stroke-0, #1CB75E)" stroke-width="2"/>
</g>
</svg>
