<svg preserveAspectRatio="none" width="100%" height="100%" overflow="visible" style="display: block;" viewBox="0 0 73 42" fill="none" xmlns="http://www.w3.org/2000/svg">
<g id="Shape 832 copy 17" opacity="0.6">
<path d="M35.2429 41.7603C34.1629 41.7203 33.1029 41.4403 32.1429 40.9303L1.47293 23.1803C-0.707074 21.9203 -0.437073 19.7103 2.08293 18.2603L31.5429 1.21026C33.2329 0.290255 35.1529 -0.119745 37.0729 0.0302551H37.0529C38.1029 0.0802551 39.1329 0.360255 40.0629 0.860255L70.7529 18.6103C72.9329 19.8703 72.6629 22.0803 70.1429 23.5303L40.6829 40.5803C39.2029 41.3803 37.5529 41.8003 35.8729 41.7803C35.6729 41.7803 35.4729 41.7803 35.2729 41.7703L35.2429 41.7603ZM32.9129 1.21026L3.45293 18.2503C0.932927 19.7103 0.662926 21.9103 2.84293 23.1703L33.5229 40.9203C34.2729 41.3303 35.0929 41.5903 35.9429 41.6903C37.1729 41.5503 38.3729 41.1703 39.4629 40.5703L68.9229 23.5303C71.4429 22.0703 71.7129 19.8703 69.5329 18.6103L38.8529 0.860255C38.1029 0.450255 37.2829 0.190256 36.4329 0.0902565C35.2029 0.230256 34.0029 0.610255 32.9229 1.21026H32.9129Z" fill="url(#paint0_linear_279_1848)" style="mix-blend-mode:plus-darker"/>
</g>
<defs>
<linearGradient id="paint0_linear_279_1848" x1="36.1129" y1="0" x2="36.1129" y2="41.7809" gradientUnits="userSpaceOnUse">
<stop stop-color="#F1C200"/>
<stop offset="0.780647" stop-color="#EEBE00"/>
<stop offset="1" stop-color="#EDBD00"/>
</linearGradient>
</defs>
</svg>
