<svg preserveAspectRatio="none" width="100%" height="100%" overflow="visible" style="display: block;" viewBox="0 0 37 23" fill="none" xmlns="http://www.w3.org/2000/svg">
<g id="Shape 3711 copy 13" style="mix-blend-mode:overlay">
<path d="M17.11 21.27L19.25 20.02L21.39 21.27L19.25 22.52L17.11 21.27ZM12.83 18.77L14.97 17.52L17.11 18.77L14.97 20.02L12.83 18.77ZM21.4 18.76L23.54 17.51L25.68 18.76L23.54 20.01L21.4 18.76ZM8.55 16.27L10.69 15.02L12.83 16.27L10.69 17.52L8.55 16.27ZM17.13 16.26L19.27 15.01L21.41 16.26L19.27 17.51L17.13 16.26ZM25.7 16.25L27.84 15L29.98 16.25L27.84 17.5L25.7 16.25ZM12.85 13.77L14.99 12.52L17.13 13.77L14.99 15.02L12.85 13.77ZM21.42 13.76L23.56 12.51L25.7 13.75L23.56 15L21.42 13.76ZM3.47 13.71L5.61 12.47L7.75 13.71L5.61 14.95L3.47 13.71ZM29.19 13.68L31.33 12.44L33.47 13.68L31.33 14.92L29.19 13.68ZM0 11.28L2.14 10.03L4.28 11.28L2.14 12.53L0 11.28ZM25.71 11.25L27.85 10L29.99 11.25L27.85 12.5L25.71 11.25ZM34.29 11.24L36.43 9.99V12.49L34.29 11.24ZM7.77 11.23L9.91 9.99L12.05 11.23L9.91 12.47L7.77 11.23ZM16.34 11.22L18.48 9.98L20.62 11.22L18.48 12.46L16.34 11.22ZM4.29 8.77L6.43 7.52L8.57 8.77L6.43 10.02L4.29 8.77ZM12.86 8.76L15 7.51L17.14 8.76L15 10.01L12.86 8.76ZM30.01 8.74L32.15 7.49L34.29 8.74L32.15 9.99L30.01 8.74ZM20.63 8.73L22.77 7.49L24.91 8.73L22.77 9.97L20.63 8.73ZM8.58 6.27L10.72 5.02L12.86 6.27L10.72 7.52L8.58 6.27ZM17.16 6.26L19.3 5.01L21.44 6.25L19.3 7.5L17.16 6.26ZM25.73 6.25L27.87 5L30.01 6.25L27.87 7.5L25.73 6.25ZM12.88 3.76L15.02 2.51L17.16 3.76L15.02 5.01L12.88 3.76ZM21.45 3.75L23.59 2.5L25.73 3.75L23.59 5L21.45 3.75ZM17.18 1.25L19.32 0L21.46 1.25L19.32 2.5L17.18 1.25Z" fill="url(#paint0_linear_279_1798)" style="mix-blend-mode:plus-darker"/>
</g>
<defs>
<linearGradient id="paint0_linear_279_1798" x1="18.215" y1="0" x2="18.215" y2="22.52" gradientUnits="userSpaceOnUse">
<stop stop-color="#F1C200"/>
<stop offset="0.780647" stop-color="#EEBE00"/>
<stop offset="1" stop-color="#EDBD00"/>
</linearGradient>
</defs>
</svg>
