<svg width="74" height="78" viewBox="0 0 74 78" fill="none" xmlns="http://www.w3.org/2000/svg">
<g opacity="0.8">
<path d="M33.02 63.94L2.33002 46.17C0.140019 44.91 0.42002 42.7 2.94002 41.24L32.4 24.18C34.92 22.72 38.73 22.56 40.91 23.83L71.59 41.59C73.77 42.85 73.5 45.06 70.98 46.52L41.52 63.57C39 65.03 35.19 65.19 33.01 63.92L33.02 63.94Z" fill="url(#paint0_linear_26_1377)" style="mix-blend-mode:plus-darker"/>
</g>
<g opacity="0.5">
<path d="M32.66 76.07L1.97 58.3C-0.210003 57.04 0.0599966 54.83 2.58 53.37L32.04 36.32C34.56 34.86 38.33 36.13 40.51 37.4L70.87 54.84C73.05 56.1 73.14 57.2 70.63 58.66L41.17 75.71C38.65 77.17 34.84 77.33 32.66 76.06V76.07Z" fill="url(#paint1_linear_26_1377)" style="mix-blend-mode:plus-darker"/>
<path d="M32.66 76.07L1.97 58.3C-0.210003 57.04 0.0599966 54.83 2.58 53.37L32.04 36.32C34.56 34.86 38.33 36.13 40.51 37.4L70.87 54.84C73.05 56.1 73.14 57.2 70.63 58.66L41.17 75.71C38.65 77.17 34.84 77.33 32.66 76.06V76.07Z" stroke="#B5C5CC"/>
</g>
<g opacity="0.7">
<path d="M36.42 77.07C35.14 77.11 33.88 76.81 32.75 76.22L2.30998 58.45C1.41998 58.04 0.849982 57.15 0.859982 56.16V46.14C0.00998205 45.25 0.0399821 43.83 0.929982 42.98C0.949982 42.96 0.979982 42.94 0.999982 42.91L2.17998 45.26C6.18998 47.57 32 62.29 32.26 62.45C33.89 63.16 35.65 63.54 37.43 63.56C39.11 63.56 40.77 63.18 42.28 62.45C46.82 60.26 70.68 45.41 70.92 45.26C71.4 44.66 71.8 44 72.11 43.29C72.5 43.9 72.54 44.67 72.21 45.32L72.5 45.91V56.15H72.49C72.28 57.31 71.51 58.3 70.43 58.79L41.2 75.85C39.74 76.65 38.09 77.07 36.42 77.06V77.07ZM38.27 23.78H34.79C35.38 23.68 35.98 23.63 36.57 23.63C37.14 23.63 37.71 23.68 38.27 23.78Z" fill="url(#paint2_linear_26_1377)" style="mix-blend-mode:plus-darker"/>
</g>
<path d="M73.22 45.82L37.74 65.94V76.72L73.37 57.56L73.22 45.83V45.82Z" fill="url(#paint3_linear_26_1377)" style="mix-blend-mode:plus-darker"/>
<g opacity="0.6">
<path d="M36.1099 65.11C35.0299 65.07 33.9699 64.79 33.0099 64.28L2.33987 46.53C0.15987 45.27 0.42987 43.06 2.94987 41.61L32.4099 24.56C34.0999 23.64 36.0199 23.23 37.9399 23.38H37.9199C38.9699 23.43 39.9999 23.71 40.9299 24.21L71.6199 41.96C73.7999 43.22 73.5299 45.43 71.0099 46.88L41.5499 63.93C40.0699 64.73 38.4199 65.15 36.7399 65.13C36.5399 65.13 36.3399 65.13 36.1399 65.12L36.1099 65.11ZM33.7799 24.56L4.31987 41.6C1.79987 43.06 1.52987 45.26 3.70987 46.52L34.3899 64.27C35.1399 64.68 35.9599 64.94 36.8099 65.04C38.0399 64.9 39.2399 64.52 40.3299 63.92L69.7899 46.88C72.3099 45.42 72.5799 43.22 70.3999 41.96L39.7199 24.21C38.9699 23.8 38.1499 23.54 37.2999 23.44C36.0699 23.58 34.8699 23.96 33.7899 24.56H33.7799Z" fill="url(#paint4_linear_26_1377)" style="mix-blend-mode:plus-darker"/>
</g>
<path d="M15.6301 58.81C16.6401 58.3 18.5101 59.1 18.7301 60.02C18.9501 60.94 19.4101 62.71 18.5201 63.16C17.6301 63.61 15.9801 62.83 15.4201 61.95C14.8601 61.07 14.6201 59.32 15.6301 58.81Z" fill="url(#paint5_linear_26_1377)" style="mix-blend-mode:plus-darker"/>
<path d="M26.3501 63.05C25.1801 62.69 23.9201 63.22 23.3501 64.3C22.6701 65.31 22.8701 66.66 23.8101 67.43C24.3301 67.65 25.5101 68.08 26.8101 66.18C27.5501 65.2 27.3501 63.8 26.3701 63.06C26.3701 63.06 26.3701 63.06 26.3601 63.06L26.3501 63.05Z" fill="url(#paint6_linear_26_1377)" style="mix-blend-mode:plus-darker"/>
<path d="M8.88993 53.95C9.73993 53.49 11.1399 54.53 11.8499 55.3C12.5599 56.07 12.5499 57.97 11.7799 58.3C10.5999 58.49 9.41993 58.02 8.67993 57.09C8.09993 56.2 8.04993 54.41 8.88993 53.95Z" fill="url(#paint7_linear_26_1377)" style="mix-blend-mode:plus-darker"/>
<g opacity="0.6">
<path d="M36.1099 52.39C35.0299 52.35 33.9699 52.07 33.0099 51.56L2.33987 33.8C0.15987 32.54 0.42987 30.34 2.94987 28.88L32.4099 11.83C34.0999 10.91 36.0199 10.5 37.9399 10.65H37.9199C38.9699 10.7 39.9999 10.98 40.9299 11.48L71.6199 29.23C73.7999 30.49 73.5299 32.7 71.0099 34.16L41.5499 51.2C40.0699 52 38.4199 52.42 36.7399 52.4C36.5399 52.4 36.3299 52.4 36.1299 52.39H36.1099ZM33.7799 11.84L4.31987 28.88C1.79987 30.34 1.52987 32.54 3.70987 33.8L34.3899 51.55C35.1399 51.96 35.9599 52.22 36.8099 52.32C38.0499 52.18 39.2399 51.8 40.3299 51.2L69.7899 34.16C72.3099 32.7 72.5799 30.5 70.3999 29.24L39.7199 11.49C38.9699 11.08 38.1499 10.82 37.2999 10.72C36.0699 10.86 34.8699 11.24 33.7899 11.84H33.7799Z" fill="url(#paint8_linear_26_1377)" style="mix-blend-mode:plus-darker"/>
</g>
<g opacity="0.4">
<path d="M32.66 51.72L1.97 33.96C-0.210003 32.7 0.0599966 30.49 2.58 29.03L32.04 11.98C34.56 10.52 38.33 11.8 40.51 13.06L70.87 30.5C73.05 31.76 73.15 32.86 70.63 34.32L41.17 51.37C38.65 52.83 34.84 52.99 32.66 51.72Z" fill="url(#paint9_linear_26_1377)" style="mix-blend-mode:plus-darker"/>
</g>
<g opacity="0.6">
<path d="M36.1099 41.76C35.0299 41.72 33.9699 41.44 33.0099 40.93L2.33987 23.18C0.15987 21.92 0.42987 19.71 2.94987 18.26L32.4099 1.21C34.0999 0.289997 36.0199 -0.110003 37.9399 0.0299973H37.9199C38.9699 0.0799973 39.9999 0.359997 40.9299 0.859997L71.6199 18.61C73.7999 19.87 73.5299 22.08 71.0099 23.53L41.5499 40.57C40.0799 41.37 38.4199 41.79 36.7399 41.77C36.5399 41.77 36.3299 41.77 36.1299 41.75L36.1099 41.76ZM33.7799 1.21L4.31987 18.25C1.79987 19.71 1.52987 21.91 3.70987 23.17L34.3899 40.92C35.1399 41.33 35.9599 41.59 36.8099 41.69C38.0499 41.55 39.2399 41.17 40.3299 40.57L69.7899 23.53C72.3099 22.07 72.5799 19.87 70.3999 18.6L39.7199 0.859997C38.9699 0.449997 38.1499 0.189997 37.2899 0.0899973C36.0599 0.229997 34.8599 0.609997 33.7799 1.21Z" fill="url(#paint10_linear_26_1377)" style="mix-blend-mode:plus-darker"/>
</g>
<g opacity="0.85">
<path d="M36.4201 54.15C35.1401 54.19 33.8801 53.9 32.7501 53.3L2.31006 35.54C1.42006 35.13 0.850062 34.24 0.860062 33.25V23.23C0.0100622 22.34 0.0400622 20.92 0.940062 20.07C0.960062 20.05 0.990062 20.03 1.01006 20.01L2.19006 22.36C6.13006 24.63 31.1901 38.93 32.2601 39.54C33.8901 40.25 35.6501 40.63 37.4301 40.66C39.1101 40.66 40.7701 40.28 42.2801 39.55C46.8101 37.36 70.6801 22.51 70.9201 22.36C71.4001 21.76 71.8001 21.1 72.1101 20.4C72.5001 21.01 72.5401 21.78 72.2101 22.43L72.5001 23.02V33.26H72.4901C72.2801 34.42 71.5101 35.41 70.4301 35.9L41.2001 52.96C39.7401 53.76 38.0901 54.18 36.4201 54.17V54.15ZM38.2701 0.870001H34.7901C35.3801 0.770001 35.9801 0.720001 36.5801 0.720001C37.1501 0.720001 37.7201 0.770001 38.2801 0.870001H38.2701Z" fill="url(#paint11_linear_26_1377)" style="mix-blend-mode:plus-darker"/>
</g>
<path d="M73.22 21.47L37.74 42.59V54.37L73.37 32.21L73.22 21.48V21.47Z" fill="url(#paint12_linear_26_1377)" style="mix-blend-mode:plus-darker"/>
<path d="M26.3499 40.14C25.2199 39.64 23.8999 40.14 23.3999 41.28C23.3799 41.32 23.3699 41.36 23.3499 41.4C23.0199 42.71 23.0399 44.2 23.8099 44.53C24.5799 44.86 26.4699 43.98 26.8099 43.28C27.1499 42.58 27.0499 40.71 26.3499 40.15V40.14Z" fill="url(#paint13_linear_26_1377)" style="mix-blend-mode:plus-darker"/>
<path d="M15.6301 35.9C16.8101 35.71 17.9901 36.17 18.7301 37.11C19.2401 37.97 19.6501 39.78 18.5201 40.25C17.3301 40.67 16.0101 40.15 15.4201 39.04C14.9401 37.99 14.9101 36.24 15.6301 35.9Z" fill="url(#paint14_linear_26_1377)" style="mix-blend-mode:plus-darker"/>
<path d="M8.89007 31.04C9.93007 30.46 11.2401 30.83 11.8201 31.87C11.8901 31.99 11.9401 32.12 11.9901 32.25C12.5101 33.46 12.7501 34.89 11.7801 35.39C10.8101 35.89 8.19007 33.54 8.68007 34.18C9.17007 34.82 7.26007 31.63 8.89007 31.04Z" fill="url(#paint15_linear_26_1377)" style="mix-blend-mode:plus-darker"/>
<g opacity="0.4">
<path d="M33.02 41.02L2.33002 23.26C0.140019 22 0.42002 19.79 2.94002 18.33L32.41 1.28C34.93 -0.180005 38.74 -0.340005 40.92 0.929995L71.6 18.69C73.78 19.95 73.51 22.16 70.99 23.62L41.53 40.67C39.01 42.13 35.2 42.29 33.02 41.02Z" fill="url(#paint16_linear_26_1377)" style="mix-blend-mode:plus-darker"/>
<path d="M33.02 41.02L2.33002 23.26C0.140019 22 0.42002 19.79 2.94002 18.33L32.41 1.28C34.93 -0.180005 38.74 -0.340005 40.92 0.929995L71.6 18.69C73.78 19.95 73.51 22.16 70.99 23.62L41.53 40.67C39.01 42.13 35.2 42.29 33.02 41.02Z" stroke="#D0395F" stroke-width="0.07"/>
</g>
<g style="mix-blend-mode:overlay">
<path d="M34.0199 29.12L36.1599 27.87L38.2999 29.12L36.1599 30.37L34.0199 29.12ZM29.7399 26.62L31.8799 25.37L34.0199 26.62L31.8799 27.87L29.7399 26.62ZM38.3099 26.61L40.4499 25.36L42.5899 26.61L40.4499 27.86L38.3099 26.61ZM25.4599 24.12L27.5999 22.87L29.7399 24.12L27.5999 25.37L25.4599 24.12ZM34.0399 24.11L36.1799 22.86L38.3199 24.11L36.1799 25.36L34.0399 24.11ZM42.6099 24.1L44.7499 22.85L46.8899 24.1L44.7499 25.35L42.6099 24.1ZM29.7599 21.62L31.8999 20.37L34.0399 21.62L31.8999 22.87L29.7599 21.62ZM38.3299 21.61L40.4699 20.36L42.6099 21.6L40.4699 22.85L38.3299 21.61ZM20.3799 21.56L22.5199 20.32L24.6599 21.56L22.5199 22.8L20.3799 21.56ZM46.0999 21.53L48.2399 20.29L50.3799 21.53L48.2399 22.77L46.0999 21.53ZM16.9099 19.13L19.0499 17.88L21.1899 19.13L19.0499 20.38L16.9099 19.13ZM42.6199 19.1L44.7599 17.85L46.8999 19.1L44.7599 20.35L42.6199 19.1ZM51.1999 19.09L53.3399 17.84V20.34L51.1999 19.09ZM24.6799 19.08L26.8199 17.84L28.9599 19.08L26.8199 20.32L24.6799 19.08ZM33.2499 19.07L35.3899 17.83L37.5299 19.07L35.3899 20.31L33.2499 19.07ZM21.1999 16.62L23.3399 15.37L25.4799 16.62L23.3399 17.87L21.1999 16.62ZM29.7699 16.61L31.9099 15.36L34.0499 16.61L31.9099 17.86L29.7699 16.61ZM46.9199 16.59L49.0599 15.34L51.1999 16.59L49.0599 17.84L46.9199 16.59ZM37.5399 16.58L39.6799 15.34L41.8199 16.58L39.6799 17.82L37.5399 16.58ZM25.4899 14.12L27.6299 12.87L29.7699 14.12L27.6299 15.37L25.4899 14.12ZM34.0699 14.11L36.2099 12.86L38.3499 14.1L36.2099 15.35L34.0699 14.11ZM42.6399 14.1L44.7799 12.85L46.9199 14.1L44.7799 15.35L42.6399 14.1ZM29.7899 11.61L31.9299 10.36L34.0699 11.61L31.9299 12.86L29.7899 11.61ZM38.3599 11.6L40.4999 10.35L42.6399 11.6L40.4999 12.85L38.3599 11.6ZM34.0899 9.09999L36.2299 7.84999L38.3699 9.09999L36.2299 10.35L34.0899 9.09999Z" fill="url(#paint17_linear_26_1377)" style="mix-blend-mode:plus-darker"/>
</g>
<defs>
<linearGradient id="paint0_linear_26_1377" x1="36.958" y1="22.9723" x2="36.958" y2="64.7777" gradientUnits="userSpaceOnUse">
<stop stop-color="#F1C200"/>
<stop offset="0.780647" stop-color="#EEBE00"/>
<stop offset="1" stop-color="#EDBD00"/>
</linearGradient>
<linearGradient id="paint1_linear_26_1377" x1="36.5031" y1="35.6676" x2="36.5031" y2="76.9177" gradientUnits="userSpaceOnUse">
<stop stop-color="#F1C200"/>
<stop offset="0.780647" stop-color="#EEBE00"/>
<stop offset="1" stop-color="#EDBD00"/>
</linearGradient>
<linearGradient id="paint2_linear_26_1377" x1="36.371" y1="23.63" x2="36.371" y2="77.0735" gradientUnits="userSpaceOnUse">
<stop stop-color="#F1C200"/>
<stop offset="0.780647" stop-color="#EEBE00"/>
<stop offset="1" stop-color="#EDBD00"/>
</linearGradient>
<linearGradient id="paint3_linear_26_1377" x1="55.555" y1="45.82" x2="55.555" y2="76.72" gradientUnits="userSpaceOnUse">
<stop stop-color="#F1C200"/>
<stop offset="0.780647" stop-color="#EEBE00"/>
<stop offset="1" stop-color="#EDBD00"/>
</linearGradient>
<linearGradient id="paint4_linear_26_1377" x1="36.9799" y1="23.3497" x2="36.9799" y2="65.1307" gradientUnits="userSpaceOnUse">
<stop stop-color="#F1C200"/>
<stop offset="0.780647" stop-color="#EEBE00"/>
<stop offset="1" stop-color="#EDBD00"/>
</linearGradient>
<linearGradient id="paint5_linear_26_1377" x1="16.9913" y1="58.6509" x2="16.9913" y2="63.2914" gradientUnits="userSpaceOnUse">
<stop stop-color="#F1C200"/>
<stop offset="0.780647" stop-color="#EEBE00"/>
<stop offset="1" stop-color="#EDBD00"/>
</linearGradient>
<linearGradient id="paint6_linear_26_1377" x1="25.1024" y1="62.9378" x2="25.1024" y2="67.6326" gradientUnits="userSpaceOnUse">
<stop stop-color="#F1C200"/>
<stop offset="0.780647" stop-color="#EEBE00"/>
<stop offset="1" stop-color="#EDBD00"/>
</linearGradient>
<linearGradient id="paint7_linear_26_1377" x1="10.3105" y1="53.8368" x2="10.3105" y2="58.3416" gradientUnits="userSpaceOnUse">
<stop stop-color="#F1C200"/>
<stop offset="0.780647" stop-color="#EEBE00"/>
<stop offset="1" stop-color="#EDBD00"/>
</linearGradient>
<linearGradient id="paint8_linear_26_1377" x1="36.9799" y1="10.6197" x2="36.9799" y2="52.4007" gradientUnits="userSpaceOnUse">
<stop stop-color="#F1C200"/>
<stop offset="0.780647" stop-color="#EEBE00"/>
<stop offset="1" stop-color="#EDBD00"/>
</linearGradient>
<linearGradient id="paint9_linear_26_1377" x1="36.505" y1="11.3296" x2="36.505" y2="52.5777" gradientUnits="userSpaceOnUse">
<stop stop-color="#F1C200"/>
<stop offset="0.780647" stop-color="#EEBE00"/>
<stop offset="1" stop-color="#EDBD00"/>
</linearGradient>
<linearGradient id="paint10_linear_26_1377" x1="36.9799" y1="0.00273132" x2="36.9799" y2="41.7707" gradientUnits="userSpaceOnUse">
<stop stop-color="#F1C200"/>
<stop offset="0.780647" stop-color="#EEBE00"/>
<stop offset="1" stop-color="#EDBD00"/>
</linearGradient>
<linearGradient id="paint11_linear_26_1377" x1="36.3716" y1="0.720001" x2="36.3716" y2="54.1702" gradientUnits="userSpaceOnUse">
<stop stop-color="#F1C200"/>
<stop offset="0.780647" stop-color="#EEBE00"/>
<stop offset="1" stop-color="#EDBD00"/>
</linearGradient>
<linearGradient id="paint12_linear_26_1377" x1="55.555" y1="21.47" x2="55.555" y2="54.37" gradientUnits="userSpaceOnUse">
<stop stop-color="#F1C200"/>
<stop offset="0.780647" stop-color="#EEBE00"/>
<stop offset="1" stop-color="#EDBD00"/>
</linearGradient>
<linearGradient id="paint13_linear_26_1377" x1="25.0729" y1="39.9465" x2="25.0729" y2="44.6015" gradientUnits="userSpaceOnUse">
<stop stop-color="#F1C200"/>
<stop offset="0.780647" stop-color="#EEBE00"/>
<stop offset="1" stop-color="#EDBD00"/>
</linearGradient>
<linearGradient id="paint14_linear_26_1377" x1="17.1574" y1="35.8578" x2="17.1574" y2="40.3949" gradientUnits="userSpaceOnUse">
<stop stop-color="#F1C200"/>
<stop offset="0.780647" stop-color="#EEBE00"/>
<stop offset="1" stop-color="#EDBD00"/>
</linearGradient>
<linearGradient id="paint15_linear_26_1377" x1="10.3308" y1="30.7659" x2="10.3308" y2="35.4604" gradientUnits="userSpaceOnUse">
<stop stop-color="#F1C200"/>
<stop offset="0.780647" stop-color="#EEBE00"/>
<stop offset="1" stop-color="#EDBD00"/>
</linearGradient>
<linearGradient id="paint16_linear_26_1377" x1="36.963" y1="0.0723267" x2="36.963" y2="41.8777" gradientUnits="userSpaceOnUse">
<stop stop-color="#F1C200"/>
<stop offset="0.780647" stop-color="#EEBE00"/>
<stop offset="1" stop-color="#EDBD00"/>
</linearGradient>
<linearGradient id="paint17_linear_26_1377" x1="35.1249" y1="7.84999" x2="35.1249" y2="30.37" gradientUnits="userSpaceOnUse">
<stop stop-color="#F1C200"/>
<stop offset="0.780647" stop-color="#EEBE00"/>
<stop offset="1" stop-color="#EDBD00"/>
</linearGradient>
</defs>
</svg>
