<svg preserveAspectRatio="none" width="100%" height="100%" overflow="visible" style="display: block;" viewBox="0 0 73 54" fill="none" xmlns="http://www.w3.org/2000/svg">
<g id="Shape 910 copy 22" opacity="0.7">
<path d="M36.178 53.44C34.898 53.48 33.638 53.18 32.508 52.59L2.06804 34.82C1.17804 34.41 0.608039 33.52 0.618039 32.53V22.51C-0.231961 21.62 -0.201961 20.2 0.688039 19.35C0.708039 19.33 0.738039 19.31 0.758039 19.28L1.93804 21.63C5.94804 23.94 31.758 38.66 32.018 38.82C33.648 39.53 35.408 39.91 37.188 39.93C38.868 39.93 40.528 39.55 42.038 38.82C46.578 36.63 70.438 21.78 70.678 21.63C71.158 21.03 71.558 20.37 71.868 19.66C72.258 20.27 72.298 21.04 71.968 21.69L72.258 22.28V32.52H72.248C72.038 33.68 71.268 34.67 70.188 35.16L40.958 52.22C39.498 53.02 37.848 53.44 36.178 53.43V53.44ZM38.028 0.150002H34.548C35.138 0.0500015 35.738 0 36.328 0C36.898 0 37.468 0.0500015 38.028 0.150002Z" fill="url(#paint0_linear_287_2062)" style="mix-blend-mode:plus-darker"/>
</g>
<defs>
<linearGradient id="paint0_linear_287_2062" x1="36.129" y1="0" x2="36.129" y2="53.4435" gradientUnits="userSpaceOnUse">
<stop stop-color="#6AD0FF"/>
<stop offset="1" stop-color="#2BBDFF"/>
</linearGradient>
</defs>
</svg>
