<svg preserveAspectRatio="none" width="100%" height="100%" overflow="visible" style="display: block;" viewBox="0 0 73 54" fill="none" xmlns="http://www.w3.org/2000/svg">
<g id="Shape 910 copy 22-2" opacity="0.85">
<path d="M36.1769 53.43C34.8969 53.47 33.6369 53.18 32.5069 52.58L2.0669 34.82C1.1769 34.41 0.606898 33.52 0.616898 32.53V22.51C-0.233102 21.62 -0.203102 20.2 0.696898 19.35C0.716898 19.33 0.746898 19.31 0.766898 19.29L1.9469 21.64C5.8869 23.91 30.9469 38.21 32.0169 38.82C33.6469 39.53 35.4069 39.91 37.1869 39.94C38.8669 39.94 40.5269 39.56 42.0369 38.83C46.5669 36.64 70.4369 21.79 70.6769 21.64C71.1569 21.04 71.5569 20.38 71.8669 19.68C72.2569 20.29 72.2969 21.06 71.9669 21.71L72.2569 22.3V32.54H72.2469C72.0369 33.7 71.2669 34.69 70.1869 35.18L40.9569 52.24C39.4969 53.04 37.8469 53.46 36.1769 53.45V53.43ZM38.0269 0.15H34.5469C35.1369 0.05 35.7369 0 36.3369 0C36.9069 0 37.4769 0.05 38.0369 0.15H38.0269Z" fill="url(#paint0_linear_287_2060)" style="mix-blend-mode:plus-darker"/>
</g>
<defs>
<linearGradient id="paint0_linear_287_2060" x1="36.1284" y1="0" x2="36.1284" y2="53.4502" gradientUnits="userSpaceOnUse">
<stop stop-color="#6AD0FF"/>
<stop offset="1" stop-color="#2BBDFF"/>
</linearGradient>
</defs>
</svg>
