<svg preserveAspectRatio="none" width="100%" height="100%" overflow="visible" style="display: block;" viewBox="0 0 87 118" fill="none" xmlns="http://www.w3.org/2000/svg">
<g id="component">
<g id="&#234;&#184;&#176;&#235;&#145;&#165;_copy_5" opacity="0.4">
<path id="&#236;&#153;&#188;_copy" opacity="0.6" d="M9.16 81.42V25.34L1.15 20.76V76.85L9.16 81.43V81.42Z" fill="var(--fill-0, #ABB0B6)"/>
<path id="&#236;&#153;&#188;_copy_2" opacity="0.5" d="M9.16 81.42V25.34L17.17 20.76V76.85L9.16 81.43V81.42Z" fill="var(--fill-0, #BBC1C7)"/>
<path id="&#236;&#156;&#132;_copy" opacity="0.4" d="M0.64 20.95L9.2 17L17.31 21.17L9.2 25.34L0.64 20.95Z" fill="url(#paint0_linear_218_2057)"/>
</g>
<g id="&#234;&#184;&#176;&#235;&#145;&#165;_copy_3" opacity="0.4">
<path id="&#236;&#153;&#188;_copy-2" opacity="0.6" d="M77.16 81.42V25.34L69.15 20.76V76.85L77.16 81.43V81.42Z" fill="var(--fill-0, #ABB0B6)"/>
<path id="&#236;&#153;&#188;_copy_2-2" opacity="0.5" d="M77.16 81.42V25.34L85.17 20.76V76.85L77.16 81.43V81.42Z" fill="var(--fill-0, #BBC1C7)"/>
<path id="&#236;&#156;&#132;_copy-2" opacity="0.4" d="M68.64 20.95L77.2 17L85.31 21.17L77.2 25.34L68.64 20.95Z" fill="url(#paint1_linear_218_2057)"/>
</g>
<g id="&#234;&#184;&#176;&#235;&#145;&#165;_copy_2" opacity="0.4">
<path id="&#236;&#153;&#188;_copy-3" opacity="0.6" d="M43.16 64.42V8.34L35.15 3.76V59.84L43.16 64.42Z" fill="var(--fill-0, #ABB0B6)"/>
<path id="&#236;&#153;&#188;_copy_2-3" opacity="0.5" d="M43.16 64.42V8.34L51.17 3.76V59.84L43.16 64.42Z" fill="var(--fill-0, #BBC1C7)"/>
<path id="&#236;&#156;&#132;_copy-3" opacity="0.4" d="M34.64 3.95L43.2 0L51.31 4.17L43.2 8.34L34.64 3.95Z" fill="url(#paint2_linear_218_2057)"/>
</g>
<path id="Shape_3741_copy_5" opacity="0.3" d="M0 94.73L43.23 117.3L86.46 94.73L43.23 69.71L0 94.73Z" fill="var(--fill-0, #CDB6BE)"/>
<path id="Shape_3741_copy_4" opacity="0.75" d="M0 86.15L43.23 108.72L86.46 86.15L43.23 61.13L0 86.15Z" fill="var(--fill-0, #FA637C)"/>
<path id="Shape_3741_copy_3" opacity="0.75" d="M0 77.57L43.23 100.14L86.46 77.57L43.23 52.55L0 77.57Z" fill="var(--fill-0, #E90027)"/>
<path id="Shape_3732_copy" d="M0.81 20.93V67.02L44.3 89.91L85.51 68.16V22.07L43.81 0.31L0.81 20.93Z" fill="url(#paint3_linear_218_2057)" fill-opacity="0.5"/>
<path id="&#236;&#152;&#164;" d="M44.3 89.91V85.03L85.5 63.28V68.16L44.3 89.91Z" fill="var(--fill-0, #AEBAC9)"/>
<path id="&#236;&#153;&#188;" d="M44.3 89.91V85.03L0.81 62.13V67.01L44.3 89.9V89.91Z" fill="var(--fill-0, #D1D7DF)"/>
<path id="&#236;&#156;&#132;" d="M0.81 62.13L44.3 39.53L85.5 63.28L44.3 85.03L0.81 62.13Z" fill="var(--fill-0, white)"/>
<path id="Shape_3765" d="M39.42 28.54C45.97 32.43 51.2 41.75 51.07 49.3C51.07 49.66 51.04 50.02 51.01 50.37C53.07 51.91 54.77 53.89 55.97 56.16C57.35 58.56 58.1 61.26 58.14 64.03C58.1 66.49 57.23 68.33 55.7 69.2C54.29 70.01 52.47 69.91 50.52 68.94L50.02 68.68L26.45 54.68C20.67 50.87 16.14 42.55 16.26 35.81C16.38 28.81 21.42 26.05 27.49 29.66C27.79 29.84 28.09 30.03 28.4 30.25C30.39 26.4 34.67 25.72 39.42 28.54Z" fill="url(#paint4_linear_218_2057)"/>
<path id="Shape_3766" d="M67.77 58.24C67.77 58.11 67.77 57.98 67.76 57.85C67.76 57.81 67.76 57.76 67.76 57.72C67.76 57.69 67.76 57.66 67.76 57.64C67.76 57.58 67.76 57.52 67.75 57.46C67.74 57.33 67.73 57.19 67.71 57.06C67.7 56.96 67.68 56.86 67.67 56.76C67.67 56.74 67.67 56.72 67.67 56.7C67.67 56.68 67.67 56.66 67.67 56.64C67.65 56.5 67.63 56.36 67.6 56.22C67.58 56.08 67.55 55.94 67.52 55.8C67.52 55.78 67.52 55.77 67.51 55.75C67.5 55.73 67.51 55.72 67.5 55.7C67.48 55.59 67.45 55.48 67.43 55.37C67.4 55.23 67.36 55.08 67.32 54.94C67.31 54.89 67.29 54.84 67.28 54.79L67.25 54.7C67.23 54.64 67.22 54.58 67.2 54.51C67.16 54.37 67.12 54.23 67.07 54.09C67.04 53.99 67 53.88 66.97 53.78L66.95 53.73L66.93 53.68C66.88 53.55 66.84 53.41 66.79 53.28C66.74 53.15 66.69 53.02 66.64 52.89C66.63 52.85 66.61 52.82 66.59 52.78L66.56 52.71C66.53 52.64 66.5 52.57 66.48 52.5C66.42 52.37 66.37 52.23 66.31 52.1C66.26 51.99 66.21 51.88 66.16 51.77L66.14 51.72L66.12 51.68C66.04 51.52 65.96 51.36 65.88 51.2C65.8 51.04 65.72 50.89 65.64 50.74C65.59 50.65 65.55 50.57 65.5 50.49C65.46 50.42 65.42 50.36 65.38 50.3C65.22 50.03 65.06 49.77 64.9 49.51C64.86 49.45 64.83 49.39 64.79 49.32C64.75 49.25 64.71 49.2 64.67 49.14C64.61 49.05 64.55 48.96 64.49 48.87C64.44 48.8 64.39 48.72 64.34 48.65C64.23 48.5 64.12 48.35 64.01 48.2C63.91 48.07 63.81 47.94 63.7 47.81C63.59 47.68 63.5 47.56 63.4 47.44C63.3 47.32 63.19 47.2 63.09 47.08C62.99 46.96 62.88 46.85 62.76 46.73C62.65 46.61 62.54 46.5 62.42 46.39C62.32 46.29 62.22 46.2 62.12 46.11L62.08 46.08L62.06 46.06C61.94 45.95 61.82 45.84 61.7 45.73C61.62 45.66 61.53 45.59 61.45 45.52L61.39 45.47L61.34 45.43C61.22 45.33 61.1 45.24 60.98 45.15C60.89 45.08 60.8 45.02 60.7 44.95L51.05 50.36C51.28 50.52 51.51 50.7 51.73 50.88L51.79 50.94C52 51.12 52.21 51.3 52.42 51.49L52.46 51.52C52.68 51.72 52.89 51.93 53.1 52.15C53.54 52.62 53.95 53.1 54.34 53.61C54.51 53.83 54.66 54.05 54.82 54.28C54.88 54.37 54.94 54.46 55 54.55C55.08 54.67 55.16 54.79 55.24 54.92C55.41 55.18 55.57 55.44 55.72 55.71C55.81 55.86 55.9 56.01 55.98 56.16C56.16 56.48 56.32 56.81 56.48 57.14L56.5 57.19C56.65 57.5 56.78 57.81 56.91 58.12L56.94 58.19C57.07 58.51 57.19 58.83 57.3 59.15L57.32 59.2C57.42 59.51 57.52 59.82 57.6 60.12L57.63 60.21C57.71 60.52 57.79 60.82 57.85 61.13C57.85 61.15 57.85 61.16 57.86 61.18C57.93 61.5 57.98 61.81 58.02 62.12C58.02 62.14 58.02 62.16 58.02 62.18C58.06 62.48 58.09 62.77 58.11 63.06C58.11 63.09 58.11 63.11 58.11 63.14C58.13 63.44 58.14 63.74 58.13 64.03C58.13 64.32 58.11 64.62 58.08 64.9C58.08 64.92 58.08 64.94 58.08 64.97C58.05 65.23 58.01 65.48 57.96 65.72C57.96 65.75 57.95 65.78 57.94 65.81C57.89 66.04 57.83 66.27 57.76 66.49C57.75 66.53 57.74 66.56 57.73 66.59C57.67 66.78 57.6 66.95 57.52 67.13C57.5 67.17 57.48 67.22 57.46 67.26C57.38 67.43 57.29 67.59 57.19 67.74C57.17 67.78 57.15 67.82 57.13 67.85C57.02 68.02 56.9 68.18 56.76 68.33C56.72 68.37 56.68 68.41 56.64 68.45C56.54 68.56 56.43 68.66 56.32 68.76C56.28 68.8 56.23 68.84 56.19 68.87C56.04 68.99 55.87 69.1 55.7 69.2L65.35 63.79C65.52 63.69 65.68 63.58 65.84 63.46C65.88 63.42 65.93 63.39 65.97 63.35C66.08 63.25 66.19 63.15 66.29 63.04C66.33 63 66.37 62.96 66.4 62.92C66.53 62.77 66.65 62.61 66.76 62.45C66.76 62.45 66.8 62.36 66.82 62.33C66.9 62.19 66.99 62.06 67.06 61.91C67.07 61.89 67.08 61.87 67.09 61.85C67.11 61.81 67.13 61.76 67.15 61.72C67.19 61.63 67.23 61.54 67.27 61.45C67.31 61.36 67.33 61.28 67.36 61.19C67.37 61.16 67.39 61.12 67.4 61.09C67.41 61.06 67.42 61.05 67.42 61.02C67.46 60.89 67.5 60.75 67.53 60.61C67.55 60.54 67.56 60.48 67.57 60.41L67.59 60.32C67.59 60.32 67.6 60.25 67.61 60.22C67.63 60.09 67.66 59.96 67.67 59.83C67.68 59.75 67.69 59.66 67.7 59.57C67.7 59.55 67.7 59.53 67.7 59.5C67.7 59.47 67.7 59.46 67.7 59.43C67.71 59.3 67.72 59.17 67.73 59.04C67.74 58.91 67.74 58.78 67.74 58.65V58.63C67.74 58.5 67.74 58.38 67.74 58.26L67.77 58.24Z" fill="url(#paint5_linear_218_2057)"/>
<path id="Shape_3768" d="M37.55 24.58C37.41 24.49 37.27 24.4 37.13 24.32L37.04 24.26C36.92 24.19 36.81 24.13 36.69 24.06C36.65 24.04 36.6 24.01 36.56 23.99L36.38 23.9C36.38 23.9 36.29 23.85 36.24 23.83C36.16 23.79 36.09 23.76 36.01 23.72L35.86 23.64L35.8 23.61C35.65 23.54 35.51 23.48 35.36 23.42H35.34C35.2 23.35 35.06 23.3 34.92 23.25L34.86 23.23C34.81 23.21 34.75 23.19 34.7 23.18C34.63 23.16 34.55 23.13 34.48 23.1C34.44 23.09 34.4 23.08 34.36 23.07L34.17 23.01C34.17 23.01 34.07 22.98 34.02 22.97C33.97 22.96 33.91 22.95 33.86 22.93L33.67 22.88L33.57 22.86C33.51 22.85 33.45 22.84 33.38 22.83C33.31 22.82 33.23 22.8 33.16 22.79H33.08C33.02 22.77 32.96 22.76 32.89 22.75C32.81 22.74 32.73 22.73 32.65 22.72H32.58C32.52 22.72 32.47 22.72 32.42 22.7C32.32 22.7 32.23 22.69 32.14 22.69H31.94C31.82 22.69 31.7 22.69 31.59 22.7H31.49C31.49 22.7 31.44 22.7 31.41 22.71C31.24 22.73 31.06 22.75 30.89 22.78H30.84C30.6 22.83 30.36 22.89 30.13 22.96C30.11 22.96 30.09 22.97 30.07 22.98L30.02 23.01C29.92 23.04 29.82 23.08 29.73 23.12C29.68 23.14 29.63 23.16 29.59 23.18C29.45 23.24 29.31 23.31 29.17 23.39L19.49 28.79C19.63 28.71 19.77 28.64 19.91 28.58C19.96 28.56 20.01 28.54 20.05 28.52C20.15 28.48 20.25 28.44 20.35 28.41C20.39 28.4 20.43 28.39 20.46 28.37C20.69 28.29 20.93 28.23 21.17 28.19H21.23C21.4 28.15 21.57 28.13 21.75 28.11H21.93C22.04 28.09 22.16 28.09 22.28 28.09H22.48C22.57 28.09 22.67 28.09 22.76 28.1C22.84 28.1 22.91 28.1 22.99 28.11C23.07 28.12 23.15 28.13 23.23 28.14C23.31 28.15 23.4 28.16 23.49 28.17C23.58 28.18 23.64 28.2 23.71 28.21C23.8 28.23 23.9 28.24 23.99 28.27L24.18 28.32C24.28 28.34 24.38 28.37 24.49 28.4L24.68 28.46C24.79 28.49 24.9 28.53 25.02 28.57C25.07 28.59 25.13 28.6 25.18 28.62C25.34 28.68 25.5 28.74 25.66 28.81H25.68C25.85 28.89 26.02 28.96 26.19 29.04L26.35 29.12C26.47 29.18 26.59 29.24 26.71 29.3L26.89 29.39C27.05 29.48 27.21 29.57 27.37 29.66C27.67 29.84 27.97 30.03 28.28 30.25L37.96 24.85C37.82 24.75 37.69 24.66 37.55 24.58Z" fill="url(#paint6_linear_218_2057)"/>
<path id="Shape_3767" d="M60.7 43.26V43.16C60.7 43.09 60.7 43.02 60.7 42.94C60.7 42.86 60.7 42.77 60.7 42.69C60.7 42.62 60.7 42.56 60.69 42.49C60.68 42.42 60.69 42.34 60.68 42.26C60.68 42.21 60.68 42.16 60.68 42.11C60.68 42 60.66 41.88 60.65 41.77C60.65 41.71 60.64 41.65 60.63 41.59C60.63 41.57 60.63 41.55 60.63 41.53C60.61 41.33 60.58 41.13 60.55 40.93V40.91C60.55 40.91 60.54 40.84 60.53 40.81C60.51 40.65 60.48 40.49 60.45 40.33C60.45 40.3 60.44 40.27 60.43 40.23C60.42 40.15 60.4 40.07 60.38 39.99C60.36 39.89 60.35 39.8 60.33 39.7C60.32 39.64 60.3 39.59 60.29 39.53C60.27 39.44 60.25 39.36 60.23 39.27C60.22 39.21 60.2 39.14 60.19 39.08C60.17 39 60.15 38.91 60.13 38.83C60.11 38.75 60.09 38.66 60.07 38.57C60.06 38.53 60.05 38.49 60.04 38.45C60.01 38.33 59.97 38.21 59.94 38.09C59.92 38.02 59.9 37.94 59.88 37.87L59.86 37.81C59.8 37.6 59.74 37.4 59.67 37.19C59.67 37.19 59.65 37.12 59.64 37.1C59.58 36.93 59.53 36.75 59.47 36.58L59.44 36.49C59.42 36.42 59.39 36.35 59.37 36.28C59.34 36.18 59.3 36.09 59.27 35.99C59.25 35.93 59.22 35.86 59.19 35.8C59.16 35.74 59.13 35.65 59.1 35.57C59.08 35.52 59.06 35.46 59.04 35.41C59 35.3 58.95 35.19 58.9 35.07C58.87 35.01 58.85 34.95 58.83 34.89L58.8 34.83C58.72 34.64 58.63 34.44 58.54 34.25V34.22C58.5 34.16 58.47 34.11 58.45 34.05C58.38 33.9 58.31 33.76 58.24 33.61L58.21 33.54C58.15 33.42 58.09 33.3 58.03 33.18C57.98 33.08 57.93 32.99 57.88 32.89C57.88 32.87 57.86 32.86 57.85 32.84C57.69 32.53 57.52 32.22 57.34 31.91C57.33 31.88 57.31 31.86 57.3 31.83C57.29 31.8 57.26 31.77 57.25 31.74C57 31.31 56.74 30.88 56.47 30.46C56.46 30.44 56.44 30.41 56.43 30.39C56.42 30.37 56.38 30.32 56.35 30.28C56.13 29.95 55.91 29.63 55.69 29.31L55.62 29.22C55.48 29.03 55.34 28.83 55.19 28.64L55.16 28.61C55.05 28.46 54.93 28.32 54.82 28.18C54.79 28.14 54.75 28.09 54.71 28.05C54.56 27.86 54.41 27.67 54.25 27.49L54.23 27.47C54.19 27.42 54.14 27.37 54.1 27.32C54 27.2 53.9 27.09 53.79 26.97L53.74 26.91C53.67 26.84 53.61 26.77 53.54 26.69C53.47 26.61 53.39 26.52 53.31 26.44L53.23 26.36C53.16 26.28 53.08 26.21 53.01 26.14C52.94 26.07 52.88 26.01 52.81 25.94C52.78 25.91 52.74 25.87 52.7 25.84C52.62 25.76 52.54 25.69 52.46 25.61C52.4 25.56 52.35 25.5 52.29 25.45C52.23 25.4 52.2 25.37 52.16 25.33C52.08 25.26 52 25.18 51.92 25.11C51.87 25.06 51.82 25.02 51.77 24.97C51.72 24.92 51.66 24.88 51.61 24.84C51.53 24.77 51.45 24.71 51.37 24.64C51.33 24.61 51.29 24.57 51.24 24.53C51.17 24.48 51.11 24.43 51.04 24.37C50.97 24.31 50.89 24.25 50.82 24.19L50.73 24.12C50.64 24.05 50.55 23.99 50.46 23.92C50.4 23.87 50.33 23.83 50.27 23.78L50.22 23.74C50.05 23.62 49.89 23.51 49.72 23.4L49.69 23.38C49.54 23.28 49.38 23.18 49.23 23.09L49.11 23.02C48.98 22.94 48.86 22.87 48.73 22.8C48.69 22.78 48.64 22.75 48.6 22.73L48.4 22.62C48.35 22.59 48.29 22.56 48.24 22.54C48.17 22.5 48.1 22.47 48.02 22.44L47.84 22.35L47.76 22.31C47.64 22.25 47.52 22.2 47.4 22.15L47.3 22.1H47.28C47.12 22.02 46.96 21.96 46.8 21.9H46.76C46.71 21.87 46.66 21.85 46.61 21.83C46.51 21.8 46.41 21.76 46.32 21.73L46.23 21.7C46.16 21.68 46.09 21.66 46.02 21.64C45.95 21.62 45.89 21.6 45.82 21.58C45.78 21.57 45.73 21.56 45.69 21.55C45.62 21.53 45.54 21.51 45.47 21.5C45.42 21.49 45.37 21.48 45.32 21.47C45.27 21.46 45.21 21.45 45.16 21.44C45.08 21.43 45 21.41 44.92 21.4C44.88 21.4 44.84 21.39 44.8 21.38C44.74 21.38 44.69 21.37 44.63 21.36C44.54 21.35 44.46 21.34 44.37 21.33C44.34 21.33 44.3 21.33 44.27 21.32C44.22 21.32 44.17 21.32 44.12 21.32C44.02 21.32 43.92 21.31 43.82 21.31C43.78 21.31 43.74 21.31 43.71 21.31C43.68 21.31 43.63 21.31 43.59 21.31C43.47 21.31 43.35 21.31 43.23 21.32H43.1C43.1 21.32 43.05 21.32 43.03 21.32C42.82 21.34 42.62 21.36 42.42 21.4C42.17 21.45 41.92 21.51 41.67 21.59C41.65 21.59 41.62 21.6 41.6 21.61L41.55 21.63C41.44 21.67 41.34 21.71 41.23 21.75C41.18 21.77 41.13 21.79 41.07 21.81C40.92 21.88 40.76 21.95 40.61 22.04L30.94 27.44C31.09 27.36 31.24 27.28 31.39 27.21C31.44 27.19 31.49 27.17 31.55 27.15C31.65 27.11 31.76 27.06 31.87 27.03C31.91 27.02 31.95 27.01 31.99 26.99C32.24 26.91 32.49 26.85 32.74 26.8C32.94 26.76 33.15 26.74 33.35 26.72C33.42 26.72 33.48 26.72 33.55 26.71C33.67 26.71 33.79 26.7 33.91 26.7H34.14C34.24 26.7 34.34 26.7 34.44 26.71C34.52 26.71 34.61 26.72 34.7 26.73C34.79 26.74 34.87 26.75 34.96 26.76C35.05 26.77 35.15 26.78 35.24 26.8C35.32 26.81 35.4 26.83 35.48 26.84C35.58 26.86 35.68 26.88 35.79 26.9C35.86 26.92 35.94 26.93 36.01 26.95C36.12 26.98 36.23 27.01 36.34 27.04C36.41 27.06 36.48 27.08 36.54 27.1C36.67 27.14 36.8 27.18 36.92 27.23C36.97 27.25 37.02 27.26 37.07 27.28C37.25 27.35 37.43 27.42 37.61 27.49L37.71 27.54C37.86 27.6 38 27.67 38.15 27.74L38.33 27.83C38.45 27.89 38.58 27.95 38.7 28.02L38.9 28.13C39.07 28.22 39.24 28.32 39.41 28.42C39.6 28.53 39.8 28.66 39.99 28.78L40.02 28.8C40.21 28.92 40.39 29.05 40.58 29.18C40.64 29.23 40.71 29.27 40.77 29.32C40.89 29.41 41.01 29.5 41.14 29.59C41.22 29.65 41.29 29.71 41.36 29.76C41.47 29.85 41.58 29.93 41.69 30.02C41.77 30.09 41.85 30.15 41.93 30.22C42.03 30.31 42.14 30.4 42.24 30.49C42.32 30.56 42.4 30.63 42.48 30.71C42.58 30.8 42.68 30.89 42.78 30.99C42.86 31.07 42.94 31.14 43.02 31.22C43.12 31.32 43.22 31.42 43.32 31.52C43.39 31.59 43.47 31.67 43.54 31.74C43.64 31.85 43.75 31.96 43.85 32.07C43.92 32.14 43.98 32.21 44.05 32.28C44.17 32.41 44.29 32.55 44.41 32.68C44.45 32.73 44.5 32.78 44.55 32.83C44.71 33.02 44.87 33.21 45.03 33.41C45.06 33.45 45.1 33.5 45.13 33.54C45.25 33.69 45.37 33.85 45.5 34.01C45.65 34.2 45.79 34.39 45.93 34.59L46 34.69C46.23 35.01 46.45 35.33 46.66 35.66L46.78 35.84C47.05 36.26 47.31 36.68 47.56 37.12C47.59 37.17 47.62 37.23 47.65 37.28C47.82 37.59 47.99 37.9 48.16 38.21C48.22 38.32 48.28 38.44 48.33 38.55C48.38 38.66 48.45 38.79 48.51 38.91C48.59 39.08 48.67 39.25 48.75 39.42C48.78 39.48 48.81 39.54 48.83 39.59C48.93 39.81 49.03 40.03 49.12 40.26C49.14 40.32 49.17 40.38 49.19 40.43C49.26 40.6 49.32 40.76 49.39 40.93C49.42 41.01 49.45 41.08 49.48 41.16C49.54 41.32 49.6 41.48 49.66 41.64C49.69 41.71 49.71 41.78 49.74 41.85C49.81 42.05 49.88 42.25 49.95 42.46L49.98 42.54C50.05 42.77 50.12 43 50.19 43.23C50.21 43.3 50.23 43.38 50.25 43.45C50.29 43.61 50.34 43.77 50.38 43.93C50.4 44.02 50.42 44.1 50.44 44.19C50.48 44.34 50.51 44.49 50.54 44.63C50.56 44.72 50.58 44.8 50.6 44.89C50.63 45.04 50.66 45.19 50.69 45.34C50.7 45.42 50.72 45.5 50.74 45.58C50.77 45.77 50.8 45.96 50.83 46.15C50.83 46.19 50.84 46.22 50.85 46.26C50.88 46.49 50.91 46.71 50.93 46.93C50.93 46.99 50.94 47.05 50.95 47.12C50.97 47.28 50.98 47.44 50.99 47.6C50.99 47.68 50.99 47.75 51 47.83C51 47.98 51.02 48.13 51.02 48.29C51.02 48.36 51.02 48.43 51.02 48.51C51.02 48.72 51.02 48.94 51.02 49.15C51.02 49.51 50.99 49.87 50.96 50.22L60.63 44.82C60.65 44.64 60.66 44.47 60.67 44.29C60.67 44.11 60.69 43.94 60.69 43.78V43.75C60.69 43.57 60.69 43.4 60.69 43.22L60.7 43.26Z" fill="url(#paint7_linear_218_2057)"/>
</g>
<defs>
<linearGradient id="paint0_linear_218_2057" x1="10.8012" y1="25.1682" x2="9.85034" y2="16.5292" gradientUnits="userSpaceOnUse">
<stop stop-color="#BDC2D4"/>
<stop offset="0.99" stop-color="#CCCFD3"/>
<stop offset="1" stop-color="#CCCFD3"/>
</linearGradient>
<linearGradient id="paint1_linear_218_2057" x1="79.0048" y1="25.2682" x2="78.0545" y2="16.6291" gradientUnits="userSpaceOnUse">
<stop stop-color="#BDC2D4"/>
<stop offset="0.99" stop-color="#CCCFD3"/>
<stop offset="1" stop-color="#CCCFD3"/>
</linearGradient>
<linearGradient id="paint2_linear_218_2057" x1="44.8012" y1="8.2682" x2="43.8503" y2="-0.370799" gradientUnits="userSpaceOnUse">
<stop stop-color="#BDC2D4"/>
<stop offset="0.99" stop-color="#CCCFD3"/>
<stop offset="1" stop-color="#CCCFD3"/>
</linearGradient>
<linearGradient id="paint3_linear_218_2057" x1="42.922" y1="90.022" x2="42.922" y2="0.422003" gradientUnits="userSpaceOnUse">
<stop stop-color="white" stop-opacity="0.6"/>
<stop offset="0.44" stop-color="white" stop-opacity="0.6"/>
<stop offset="1" stop-color="white" stop-opacity="0.2"/>
</linearGradient>
<linearGradient id="paint4_linear_218_2057" x1="37.0279" y1="69.4918" x2="37.0279" y2="26.5618" gradientUnits="userSpaceOnUse">
<stop stop-color="#FF3859"/>
<stop offset="0.02" stop-color="#FF3859"/>
<stop offset="0.43" stop-color="#FF3859" stop-opacity="0.6"/>
<stop offset="1" stop-color="#FF3859" stop-opacity="0.4"/>
</linearGradient>
<linearGradient id="paint5_linear_218_2057" x1="59.4192" y1="69.4624" x2="59.4192" y2="45.2024" gradientUnits="userSpaceOnUse">
<stop stop-color="#DB2846"/>
<stop offset="0.43" stop-color="#DB2846"/>
<stop offset="1" stop-color="#DB2846" stop-opacity="0.5"/>
</linearGradient>
<linearGradient id="paint6_linear_218_2057" x1="28.6548" y1="30.1448" x2="28.6548" y2="22.5748" gradientUnits="userSpaceOnUse">
<stop stop-color="#DB2846"/>
<stop offset="0.43" stop-color="#DB2846"/>
<stop offset="1" stop-color="#DB2846" stop-opacity="0.5"/>
</linearGradient>
<linearGradient id="paint7_linear_218_2057" x1="46.006" y1="50.3028" x2="46.006" y2="21.3828" gradientUnits="userSpaceOnUse">
<stop stop-color="#DB2846"/>
<stop offset="0.43" stop-color="#DB2846" stop-opacity="0.75"/>
<stop offset="1" stop-color="#DB2846" stop-opacity="0.5"/>
</linearGradient>
</defs>
</svg>
