<svg preserveAspectRatio="none" width="100%" height="100%" overflow="visible" style="display: block;" viewBox="0 0 87 118" fill="none" xmlns="http://www.w3.org/2000/svg">
<g id="Component">
<g id="&#234;&#184;&#176;&#235;&#145;&#165;_copy_5" opacity="0.4">
<path id="&#236;&#153;&#188;_copy" opacity="0.6" d="M9.16 81.42V25.34L1.15 20.76V76.85L9.16 81.43V81.42Z" fill="var(--fill-0, #ABB0B6)"/>
<path id="&#236;&#153;&#188;_copy_2" opacity="0.5" d="M9.16 81.42V25.34L17.17 20.76V76.85L9.16 81.43V81.42Z" fill="var(--fill-0, #BBC1C7)"/>
<path id="&#236;&#156;&#132;_copy" opacity="0.4" d="M0.64 20.95L9.2 17L17.31 21.17L9.2 25.34L0.64 20.95Z" fill="url(#paint0_linear_218_1905)"/>
</g>
<g id="&#234;&#184;&#176;&#235;&#145;&#165;_copy_3" opacity="0.4">
<path id="&#236;&#153;&#188;_copy-2" opacity="0.6" d="M77.16 81.42V25.34L69.15 20.76V76.85L77.16 81.43V81.42Z" fill="var(--fill-0, #ABB0B6)"/>
<path id="&#236;&#153;&#188;_copy_2-2" opacity="0.5" d="M77.16 81.42V25.34L85.17 20.76V76.85L77.16 81.43V81.42Z" fill="var(--fill-0, #BBC1C7)"/>
<path id="&#236;&#156;&#132;_copy-2" opacity="0.4" d="M68.64 20.95L77.2 17L85.31 21.17L77.2 25.34L68.64 20.95Z" fill="url(#paint1_linear_218_1905)"/>
</g>
<g id="&#234;&#184;&#176;&#235;&#145;&#165;_copy_2" opacity="0.4">
<path id="&#236;&#153;&#188;_copy-3" opacity="0.6" d="M43.16 64.42V8.34L35.15 3.76V59.84L43.16 64.42Z" fill="var(--fill-0, #ABB0B6)"/>
<path id="&#236;&#153;&#188;_copy_2-3" opacity="0.5" d="M43.16 64.42V8.34L51.17 3.76V59.84L43.16 64.42Z" fill="var(--fill-0, #BBC1C7)"/>
<path id="&#236;&#156;&#132;_copy-3" opacity="0.4" d="M34.64 3.95L43.2 0L51.31 4.17L43.2 8.34L34.64 3.95Z" fill="url(#paint2_linear_218_1905)"/>
</g>
<path id="Shape_3741_copy_5" opacity="0.75" d="M0 94.73L43.23 117.3L86.46 94.73L43.23 69.71L0 94.73Z" fill="var(--fill-0, #C2D3CD)"/>
<path id="Shape_3741_copy_4" opacity="0.75" d="M0 86.15L43.23 108.72L86.46 86.15L43.23 61.13L0 86.15Z" fill="var(--fill-0, #5ECA9B)"/>
<path id="Shape_3741_copy_3" opacity="0.75" d="M0 77.57L43.23 100.14L86.46 77.57L43.23 52.55L0 77.57Z" fill="var(--fill-0, #279D59)"/>
<path id="Shape_3732_copy" d="M0.81 20.93V67.02L44.3 89.91L85.51 68.16V22.07L43.81 0.31L0.81 20.93Z" fill="url(#paint3_linear_218_1905)"/>
<path id="&#236;&#152;&#164;" d="M44.3 89.91V85.03L85.5 63.28V68.16L44.3 89.91Z" fill="var(--fill-0, #AEBAC9)"/>
<path id="&#236;&#153;&#188;" d="M44.3 89.91V85.03L0.81 62.13V67.01L44.3 89.9V89.91Z" fill="var(--fill-0, #D1D7DF)"/>
<path id="&#236;&#156;&#132;" d="M0.81 62.13L44.3 39.53L85.5 63.28L44.3 85.03L0.81 62.13Z" fill="var(--fill-0, white)"/>
<path id="Shape_3765" d="M40.1623 28.7263C46.7123 32.6163 51.9423 41.9363 51.8123 49.4863C51.8123 49.8463 51.7823 50.2063 51.7523 50.5563C53.8123 52.0963 55.5123 54.0763 56.7123 56.3463C58.0923 58.7463 58.8423 61.4463 58.8823 64.2163C58.8423 66.6763 57.9723 68.5163 56.4423 69.3863C55.0323 70.1963 53.2123 70.0963 51.2623 69.1263L50.7623 68.8663L27.1923 54.8663C21.4123 51.0563 16.8823 42.7363 17.0023 35.9963C17.1223 28.9963 22.1623 26.2363 28.2323 29.8463C28.5323 30.0263 28.8323 30.2163 29.1423 30.4363C31.1323 26.5863 35.4123 25.9063 40.1623 28.7263Z" fill="url(#paint4_linear_218_1905)"/>
<path id="Shape_3766" d="M67.77 58.24C67.77 58.11 67.77 57.98 67.76 57.85C67.76 57.81 67.76 57.76 67.76 57.72C67.76 57.69 67.76 57.66 67.76 57.64C67.76 57.58 67.76 57.52 67.75 57.46C67.74 57.33 67.73 57.19 67.71 57.06C67.7 56.96 67.68 56.86 67.67 56.76C67.67 56.74 67.67 56.72 67.67 56.7C67.67 56.68 67.67 56.66 67.67 56.64C67.65 56.5 67.63 56.36 67.6 56.22C67.58 56.08 67.55 55.94 67.52 55.8C67.52 55.78 67.52 55.77 67.51 55.75C67.5 55.73 67.51 55.72 67.5 55.7C67.48 55.59 67.45 55.48 67.43 55.37C67.4 55.23 67.36 55.08 67.32 54.94C67.31 54.89 67.29 54.84 67.28 54.79L67.25 54.7C67.23 54.64 67.22 54.58 67.2 54.51C67.16 54.37 67.12 54.23 67.07 54.09C67.04 53.99 67 53.88 66.97 53.78L66.95 53.73L66.93 53.68C66.88 53.55 66.84 53.41 66.79 53.28C66.74 53.15 66.69 53.02 66.64 52.89C66.63 52.85 66.61 52.82 66.59 52.78L66.56 52.71C66.53 52.64 66.5 52.57 66.48 52.5C66.42 52.37 66.37 52.23 66.31 52.1C66.26 51.99 66.21 51.88 66.16 51.77L66.14 51.72L66.12 51.68C66.04 51.52 65.96 51.36 65.88 51.2C65.8 51.04 65.72 50.89 65.64 50.74C65.59 50.65 65.55 50.57 65.5 50.49C65.46 50.42 65.42 50.36 65.38 50.3C65.22 50.03 65.06 49.77 64.9 49.51C64.86 49.45 64.83 49.39 64.79 49.32C64.75 49.25 64.71 49.2 64.67 49.14C64.61 49.05 64.55 48.96 64.49 48.87C64.44 48.8 64.39 48.72 64.34 48.65C64.23 48.5 64.12 48.35 64.01 48.2C63.91 48.07 63.81 47.94 63.7 47.81C63.59 47.68 63.5 47.56 63.4 47.44C63.3 47.32 63.19 47.2 63.09 47.08C62.99 46.96 62.88 46.85 62.76 46.73C62.65 46.61 62.54 46.5 62.42 46.39C62.32 46.29 62.22 46.2 62.12 46.11L62.08 46.08L62.06 46.06C61.94 45.95 61.82 45.84 61.7 45.73C61.62 45.66 61.53 45.59 61.45 45.52L61.39 45.47L61.34 45.43C61.22 45.33 61.1 45.24 60.98 45.15C60.89 45.08 60.8 45.02 60.7 44.95L51.05 50.36C51.28 50.52 51.51 50.7 51.73 50.88L51.79 50.94C52 51.12 52.21 51.3 52.42 51.49L52.46 51.52C52.68 51.72 52.89 51.93 53.1 52.15C53.54 52.62 53.95 53.1 54.34 53.61C54.51 53.83 54.66 54.05 54.82 54.28C54.88 54.37 54.94 54.46 55 54.55C55.08 54.67 55.16 54.79 55.24 54.92C55.41 55.18 55.57 55.44 55.72 55.71C55.81 55.86 55.9 56.01 55.98 56.16C56.16 56.48 56.32 56.81 56.48 57.14L56.5 57.19C56.65 57.5 56.78 57.81 56.91 58.12L56.94 58.19C57.07 58.51 57.19 58.83 57.3 59.15L57.32 59.2C57.42 59.51 57.52 59.82 57.6 60.12L57.63 60.21C57.71 60.52 57.79 60.82 57.85 61.13C57.85 61.15 57.85 61.16 57.86 61.18C57.93 61.5 57.98 61.81 58.02 62.12C58.02 62.14 58.02 62.16 58.02 62.18C58.06 62.48 58.09 62.77 58.11 63.06C58.11 63.09 58.11 63.11 58.11 63.14C58.13 63.44 58.14 63.74 58.13 64.03C58.13 64.32 58.11 64.62 58.08 64.9C58.08 64.92 58.08 64.94 58.08 64.97C58.05 65.23 58.01 65.48 57.96 65.72C57.96 65.75 57.95 65.78 57.94 65.81C57.89 66.04 57.83 66.27 57.76 66.49C57.75 66.53 57.74 66.56 57.73 66.59C57.67 66.78 57.6 66.95 57.52 67.13C57.5 67.17 57.48 67.22 57.46 67.26C57.38 67.43 57.29 67.59 57.19 67.74C57.17 67.78 57.15 67.82 57.13 67.85C57.02 68.02 56.9 68.18 56.76 68.33C56.72 68.37 56.68 68.41 56.64 68.45C56.54 68.56 56.43 68.66 56.32 68.76C56.28 68.8 56.23 68.84 56.19 68.87C56.04 68.99 55.87 69.1 55.7 69.2L65.35 63.79C65.52 63.69 65.68 63.58 65.84 63.46C65.88 63.42 65.93 63.39 65.97 63.35C66.08 63.25 66.19 63.15 66.29 63.04C66.33 63 66.37 62.96 66.4 62.92C66.53 62.77 66.65 62.61 66.76 62.45C66.76 62.45 66.8 62.36 66.82 62.33C66.9 62.19 66.99 62.06 67.06 61.91C67.07 61.89 67.08 61.87 67.09 61.85C67.11 61.81 67.13 61.76 67.15 61.72C67.19 61.63 67.23 61.54 67.27 61.45C67.31 61.36 67.33 61.28 67.36 61.19C67.37 61.16 67.39 61.12 67.4 61.09C67.41 61.06 67.42 61.05 67.42 61.02C67.46 60.89 67.5 60.75 67.53 60.61C67.55 60.54 67.56 60.48 67.57 60.41L67.59 60.32C67.59 60.32 67.6 60.25 67.61 60.22C67.63 60.09 67.66 59.96 67.67 59.83C67.68 59.75 67.69 59.66 67.7 59.57C67.7 59.55 67.7 59.53 67.7 59.5C67.7 59.47 67.7 59.46 67.7 59.43C67.71 59.3 67.72 59.17 67.73 59.04C67.74 58.91 67.74 58.78 67.74 58.65V58.63C67.74 58.5 67.74 58.38 67.74 58.26L67.77 58.24Z" fill="url(#paint5_linear_218_1905)"/>
<path id="Shape_3768" d="M37.55 24.58C37.41 24.49 37.27 24.4 37.13 24.32L37.04 24.26C36.92 24.19 36.81 24.13 36.69 24.06C36.65 24.04 36.6 24.01 36.56 23.99L36.38 23.9C36.38 23.9 36.29 23.85 36.24 23.83C36.16 23.79 36.09 23.76 36.01 23.72L35.86 23.64L35.8 23.61C35.65 23.54 35.51 23.48 35.36 23.42H35.34C35.2 23.35 35.06 23.3 34.92 23.25L34.86 23.23C34.81 23.21 34.75 23.19 34.7 23.18C34.63 23.16 34.55 23.13 34.48 23.1C34.44 23.09 34.4 23.08 34.36 23.07L34.17 23.01C34.17 23.01 34.07 22.98 34.02 22.97C33.97 22.96 33.91 22.95 33.86 22.93L33.67 22.88L33.57 22.86C33.51 22.85 33.45 22.84 33.38 22.83C33.31 22.82 33.23 22.8 33.16 22.79H33.08C33.02 22.77 32.96 22.76 32.89 22.75C32.81 22.74 32.73 22.73 32.65 22.72H32.58C32.52 22.72 32.47 22.72 32.42 22.7C32.32 22.7 32.23 22.69 32.14 22.69H31.94C31.82 22.69 31.7 22.69 31.59 22.7H31.49C31.49 22.7 31.44 22.7 31.41 22.71C31.24 22.73 31.06 22.75 30.89 22.78H30.84C30.6 22.83 30.36 22.89 30.13 22.96C30.11 22.96 30.09 22.97 30.07 22.98L30.02 23.01C29.92 23.04 29.82 23.08 29.73 23.12C29.68 23.14 29.63 23.16 29.59 23.18C29.45 23.24 29.31 23.31 29.17 23.39L19.49 28.79C19.63 28.71 19.77 28.64 19.91 28.58C19.96 28.56 20.01 28.54 20.05 28.52C20.15 28.48 20.25 28.44 20.35 28.41C20.39 28.4 20.43 28.39 20.46 28.37C20.69 28.29 20.93 28.23 21.17 28.19H21.23C21.4 28.15 21.57 28.13 21.75 28.11H21.93C22.04 28.09 22.16 28.09 22.28 28.09H22.48C22.57 28.09 22.67 28.09 22.76 28.1C22.84 28.1 22.91 28.1 22.99 28.11C23.07 28.12 23.15 28.13 23.23 28.14C23.31 28.15 23.4 28.16 23.49 28.17C23.58 28.18 23.64 28.2 23.71 28.21C23.8 28.23 23.9 28.24 23.99 28.27L24.18 28.32C24.28 28.34 24.38 28.37 24.49 28.4L24.68 28.46C24.79 28.49 24.9 28.53 25.02 28.57C25.07 28.59 25.13 28.6 25.18 28.62C25.34 28.68 25.5 28.74 25.66 28.81H25.68C25.85 28.89 26.02 28.96 26.19 29.04L26.35 29.12C26.47 29.18 26.59 29.24 26.71 29.3L26.89 29.39C27.05 29.48 27.21 29.57 27.37 29.66C27.67 29.84 27.97 30.03 28.28 30.25L37.96 24.85C37.82 24.75 37.69 24.66 37.55 24.58Z" fill="url(#paint6_linear_218_1905)"/>
<path id="Shape_3767" d="M61.76 42.95V42.85C61.76 42.78 61.76 42.71 61.76 42.63C61.76 42.55 61.76 42.46 61.76 42.38C61.76 42.31 61.76 42.25 61.75 42.18C61.74 42.11 61.75 42.03 61.74 41.95C61.74 41.9 61.74 41.85 61.74 41.8C61.74 41.69 61.72 41.57 61.71 41.46C61.71 41.4 61.7 41.34 61.69 41.28C61.69 41.26 61.69 41.24 61.69 41.22C61.67 41.02 61.64 40.82 61.61 40.62V40.6C61.61 40.6 61.6 40.53 61.59 40.5C61.57 40.34 61.54 40.18 61.51 40.02C61.51 39.99 61.5 39.96 61.49 39.92C61.48 39.84 61.46 39.76 61.44 39.68C61.42 39.58 61.41 39.49 61.39 39.39C61.38 39.33 61.36 39.28 61.35 39.22C61.33 39.13 61.31 39.05 61.29 38.96C61.28 38.9 61.26 38.83 61.25 38.77C61.23 38.69 61.21 38.6 61.19 38.52C61.17 38.44 61.15 38.35 61.13 38.26C61.12 38.22 61.11 38.18 61.1 38.14C61.07 38.02 61.03 37.9 61 37.78C60.98 37.71 60.96 37.63 60.94 37.56L60.92 37.5C60.86 37.29 60.8 37.09 60.73 36.88C60.73 36.88 60.71 36.81 60.7 36.79C60.64 36.62 60.59 36.44 60.53 36.27L60.5 36.18C60.48 36.11 60.45 36.04 60.43 35.97C60.4 35.87 60.36 35.78 60.33 35.68C60.31 35.62 60.28 35.55 60.25 35.49C60.22 35.43 60.19 35.34 60.16 35.26C60.14 35.21 60.12 35.15 60.1 35.1C60.06 34.99 60.01 34.88 59.96 34.76C59.93 34.7 59.91 34.64 59.89 34.58L59.86 34.52C59.78 34.33 59.69 34.13 59.6 33.94V33.91C59.56 33.85 59.53 33.8 59.51 33.74C59.44 33.59 59.37 33.45 59.3 33.3L59.27 33.23C59.21 33.11 59.15 32.99 59.09 32.87C59.04 32.77 58.99 32.68 58.94 32.58C58.94 32.56 58.92 32.55 58.91 32.53C58.75 32.22 58.58 31.91 58.4 31.6C58.39 31.57 58.37 31.55 58.36 31.52C58.35 31.49 58.32 31.46 58.31 31.43C58.06 31 57.8 30.57 57.53 30.15C57.52 30.13 57.5 30.1 57.49 30.08C57.48 30.06 57.44 30.01 57.41 29.97C57.19 29.64 56.97 29.32 56.75 29L56.68 28.91C56.54 28.72 56.4 28.52 56.25 28.33L56.22 28.3C56.11 28.15 55.99 28.01 55.88 27.87C55.85 27.83 55.81 27.78 55.77 27.74C55.62 27.55 55.47 27.36 55.31 27.18L55.29 27.16C55.25 27.11 55.2 27.06 55.16 27.01C55.06 26.89 54.96 26.78 54.85 26.66L54.8 26.6C54.73 26.53 54.67 26.46 54.6 26.38C54.53 26.3 54.45 26.21 54.37 26.13L54.29 26.05C54.22 25.97 54.14 25.9 54.07 25.83C54 25.76 53.94 25.7 53.87 25.63C53.84 25.6 53.8 25.56 53.76 25.53C53.68 25.45 53.6 25.38 53.52 25.3C53.46 25.25 53.41 25.19 53.35 25.14C53.29 25.09 53.26 25.06 53.22 25.02C53.14 24.95 53.06 24.87 52.98 24.8C52.93 24.75 52.88 24.71 52.83 24.66C52.78 24.61 52.72 24.57 52.67 24.53C52.59 24.46 52.51 24.4 52.43 24.33C52.39 24.3 52.35 24.26 52.3 24.22C52.23 24.17 52.17 24.12 52.1 24.06C52.03 24 51.95 23.94 51.88 23.88L51.79 23.81C51.7 23.74 51.61 23.68 51.52 23.61C51.46 23.56 51.39 23.52 51.33 23.47L51.28 23.43C51.11 23.31 50.95 23.2 50.78 23.09L50.75 23.07C50.6 22.97 50.44 22.87 50.29 22.78L50.17 22.71C50.04 22.63 49.92 22.56 49.79 22.49C49.75 22.47 49.7 22.44 49.66 22.42L49.46 22.31C49.41 22.28 49.35 22.25 49.3 22.23C49.23 22.19 49.16 22.16 49.08 22.13L48.9 22.04L48.82 22C48.7 21.94 48.58 21.89 48.46 21.84L48.36 21.79H48.34C48.18 21.71 48.02 21.65 47.86 21.59H47.82C47.77 21.56 47.72 21.54 47.67 21.52C47.57 21.49 47.47 21.45 47.38 21.42L47.29 21.39C47.22 21.37 47.15 21.35 47.08 21.33C47.01 21.31 46.95 21.29 46.88 21.27C46.84 21.26 46.79 21.25 46.75 21.24C46.68 21.22 46.6 21.2 46.53 21.19C46.48 21.18 46.43 21.17 46.38 21.16C46.33 21.15 46.27 21.14 46.22 21.13C46.14 21.12 46.06 21.1 45.98 21.09C45.94 21.09 45.9 21.08 45.86 21.07C45.8 21.07 45.75 21.06 45.69 21.05C45.6 21.04 45.52 21.03 45.43 21.02C45.4 21.02 45.36 21.02 45.33 21.01C45.28 21.01 45.23 21.01 45.18 21.01C45.08 21.01 44.98 21 44.88 21C44.84 21 44.8 21 44.77 21C44.74 21 44.69 21 44.65 21C44.53 21 44.41 21 44.29 21.01H44.16C44.16 21.01 44.11 21.01 44.09 21.01C43.88 21.03 43.68 21.05 43.48 21.09C43.23 21.14 42.98 21.2 42.73 21.28C42.71 21.28 42.68 21.29 42.66 21.3L42.61 21.32C42.5 21.36 42.4 21.4 42.29 21.44C42.24 21.46 42.19 21.48 42.13 21.5C41.98 21.57 41.82 21.64 41.67 21.73L32 27.13C32.15 27.05 32.3 26.97 32.45 26.9C32.5 26.88 32.55 26.86 32.61 26.84C32.71 26.8 32.82 26.75 32.93 26.72C32.97 26.71 33.01 26.7 33.05 26.68C33.3 26.6 33.55 26.54 33.8 26.49C34 26.45 34.21 26.43 34.41 26.41C34.48 26.41 34.54 26.41 34.61 26.4C34.73 26.4 34.85 26.39 34.97 26.39H35.2C35.3 26.39 35.4 26.39 35.5 26.4C35.58 26.4 35.67 26.41 35.76 26.42C35.85 26.43 35.93 26.44 36.02 26.45C36.11 26.46 36.21 26.47 36.3 26.49C36.38 26.5 36.46 26.52 36.54 26.53C36.64 26.55 36.74 26.57 36.85 26.59C36.92 26.61 37 26.62 37.07 26.64C37.18 26.67 37.29 26.7 37.4 26.73C37.47 26.75 37.54 26.77 37.6 26.79C37.73 26.83 37.86 26.87 37.98 26.92C38.03 26.94 38.08 26.95 38.13 26.97C38.31 27.04 38.49 27.11 38.67 27.18L38.77 27.23C38.92 27.29 39.06 27.36 39.21 27.43L39.39 27.52C39.51 27.58 39.64 27.64 39.76 27.71L39.96 27.82C40.13 27.91 40.3 28.01 40.47 28.11C40.66 28.22 40.86 28.35 41.05 28.47L41.08 28.49C41.27 28.61 41.45 28.74 41.64 28.87C41.7 28.92 41.77 28.96 41.83 29.01C41.95 29.1 42.07 29.19 42.2 29.28C42.28 29.34 42.35 29.4 42.42 29.45C42.53 29.54 42.64 29.62 42.75 29.71C42.83 29.78 42.91 29.84 42.99 29.91C43.09 30 43.2 30.09 43.3 30.18C43.38 30.25 43.46 30.32 43.54 30.4C43.64 30.49 43.74 30.58 43.84 30.68C43.92 30.76 44 30.83 44.08 30.91C44.18 31.01 44.28 31.11 44.38 31.21C44.45 31.28 44.53 31.36 44.6 31.43C44.7 31.54 44.81 31.65 44.91 31.76C44.98 31.83 45.04 31.9 45.11 31.97C45.23 32.1 45.35 32.24 45.47 32.37C45.51 32.42 45.56 32.47 45.61 32.52C45.77 32.71 45.93 32.9 46.09 33.1C46.12 33.14 46.16 33.19 46.19 33.23C46.31 33.38 46.43 33.54 46.56 33.7C46.71 33.89 46.85 34.08 46.99 34.28L47.06 34.38C47.29 34.7 47.51 35.02 47.72 35.35L47.84 35.53C48.11 35.95 48.37 36.37 48.62 36.81C48.65 36.86 48.68 36.92 48.71 36.97C48.88 37.28 49.05 37.59 49.22 37.9C49.28 38.01 49.34 38.13 49.39 38.24C49.44 38.35 49.51 38.48 49.57 38.6C49.65 38.77 49.73 38.94 49.81 39.11C49.84 39.17 49.87 39.23 49.89 39.28C49.99 39.5 50.09 39.72 50.18 39.95C50.2 40.01 50.23 40.07 50.25 40.12C50.32 40.29 50.38 40.45 50.45 40.62C50.48 40.7 50.51 40.77 50.54 40.85C50.6 41.01 50.66 41.17 50.72 41.33C50.75 41.4 50.77 41.47 50.8 41.54C50.87 41.74 50.94 41.94 51.01 42.15L51.04 42.23C51.11 42.46 51.18 42.69 51.25 42.92C51.27 42.99 51.29 43.07 51.31 43.14C51.35 43.3 51.4 43.46 51.44 43.62C51.46 43.71 51.48 43.79 51.5 43.88C51.54 44.03 51.57 44.18 51.6 44.32C51.62 44.41 51.64 44.49 51.66 44.58C51.69 44.73 51.72 44.88 51.75 45.03C51.76 45.11 51.78 45.19 51.8 45.27C51.83 45.46 51.86 45.65 51.89 45.84C51.89 45.88 51.9 45.91 51.91 45.95C51.94 46.18 51.97 46.4 51.99 46.62C51.99 46.68 52 46.74 52.01 46.81C52.03 46.97 52.04 47.13 52.05 47.29C52.05 47.37 52.05 47.44 52.06 47.52C52.06 47.67 52.08 47.82 52.08 47.98C52.08 48.05 52.08 48.12 52.08 48.2C52.08 48.41 52.08 48.63 52.08 48.84C52.08 49.2 52.05 49.56 52.02 49.91L61.69 44.51C61.71 44.33 61.72 44.16 61.73 43.98C61.73 43.8 61.75 43.63 61.75 43.47V43.44C61.75 43.26 61.75 43.09 61.75 42.91L61.76 42.95Z" fill="url(#paint7_linear_218_1905)"/>
</g>
<defs>
<linearGradient id="paint0_linear_218_1905" x1="10.8012" y1="25.1682" x2="9.85034" y2="16.5292" gradientUnits="userSpaceOnUse">
<stop stop-color="#BDC2D4"/>
<stop offset="0.99" stop-color="#CCCFD3"/>
<stop offset="1" stop-color="#CCCFD3"/>
</linearGradient>
<linearGradient id="paint1_linear_218_1905" x1="79.0048" y1="25.2682" x2="78.0545" y2="16.6291" gradientUnits="userSpaceOnUse">
<stop stop-color="#BDC2D4"/>
<stop offset="0.99" stop-color="#CCCFD3"/>
<stop offset="1" stop-color="#CCCFD3"/>
</linearGradient>
<linearGradient id="paint2_linear_218_1905" x1="44.8012" y1="8.2682" x2="43.8503" y2="-0.370799" gradientUnits="userSpaceOnUse">
<stop stop-color="#BDC2D4"/>
<stop offset="0.99" stop-color="#CCCFD3"/>
<stop offset="1" stop-color="#CCCFD3"/>
</linearGradient>
<linearGradient id="paint3_linear_218_1905" x1="42.922" y1="90.022" x2="42.922" y2="0.422003" gradientUnits="userSpaceOnUse">
<stop stop-color="white" stop-opacity="0.6"/>
<stop offset="0.44" stop-color="white" stop-opacity="0.6"/>
<stop offset="1" stop-color="white" stop-opacity="0.2"/>
</linearGradient>
<linearGradient id="paint4_linear_218_1905" x1="37.7702" y1="69.6781" x2="37.7702" y2="26.7481" gradientUnits="userSpaceOnUse">
<stop stop-color="#55E2A4"/>
<stop offset="0.02" stop-color="#55E2A4"/>
<stop offset="0.43" stop-color="#55E2A4" stop-opacity="0.6"/>
<stop offset="1" stop-color="#6BF2B4" stop-opacity="0.4"/>
</linearGradient>
<linearGradient id="paint5_linear_218_1905" x1="59.4192" y1="69.4624" x2="59.4192" y2="45.2024" gradientUnits="userSpaceOnUse">
<stop stop-color="#31C292"/>
<stop offset="0.43" stop-color="#31C292"/>
<stop offset="1" stop-color="#31C292" stop-opacity="0.5"/>
</linearGradient>
<linearGradient id="paint6_linear_218_1905" x1="28.6548" y1="30.1448" x2="28.6548" y2="22.5748" gradientUnits="userSpaceOnUse">
<stop stop-color="#31C292"/>
<stop offset="0.43" stop-color="#31C292"/>
<stop offset="1" stop-color="#31C292" stop-opacity="0.5"/>
</linearGradient>
<linearGradient id="paint7_linear_218_1905" x1="47.066" y1="49.9928" x2="47.066" y2="21.0728" gradientUnits="userSpaceOnUse">
<stop stop-color="#31C292"/>
<stop offset="0.43" stop-color="#31C292" stop-opacity="0.75"/>
<stop offset="1" stop-color="#31C292" stop-opacity="0.5"/>
</linearGradient>
</defs>
</svg>
