<svg preserveAspectRatio="none" width="100%" height="100%" overflow="visible" style="display: block;" viewBox="0 0 17 13" fill="none" xmlns="http://www.w3.org/2000/svg">
<g id="icon">
<path d="M11.65 9.91C11.32 9.72 10.89 9.83 10.7 10.17L10.05 11.3H4.34L1.5 6.34L4.35 1.38H10.06L10.71 2.51C10.9 2.84 11.32 2.96 11.66 2.77C11.99 2.58 12.11 2.15 11.91 1.82L11.06 0.35C10.94 0.14 10.71 0 10.46 0H3.95C3.7 0 3.47 0.13 3.35 0.35L0.09 5.99C-0.03 6.21 -0.03 6.47 0.09 6.69L3.35 12.34C3.47 12.55 3.7 12.69 3.95 12.69H10.46C10.71 12.69 10.94 12.56 11.06 12.34L11.91 10.87C12.1 10.54 11.99 10.11 11.66 9.92L11.65 9.91Z" fill="var(--fill-0, white)"/>
<path d="M16.82 6.07C16.78 5.98 16.73 5.91 16.67 5.84L15.28 4.45C15.01 4.18 14.57 4.18 14.3 4.45C14.03 4.72 14.03 5.16 14.3 5.43L14.5 5.63H9.24C8.86 5.63 8.55 5.94 8.55 6.33C8.55 6.72 8.86 7.03 9.24 7.03H14.5L14.3 7.23C14.03 7.5 14.03 7.94 14.3 8.21C14.44 8.35 14.61 8.41 14.79 8.41C14.97 8.41 15.14 8.34 15.28 8.21L16.67 6.82C16.73 6.76 16.79 6.68 16.82 6.59C16.89 6.42 16.89 6.23 16.82 6.06V6.07Z" fill="var(--fill-0, white)"/>
</g>
</svg>
