<svg preserveAspectRatio="none" width="100%" height="100%" overflow="visible" style="display: block;" viewBox="0 0 292 74" fill="none" xmlns="http://www.w3.org/2000/svg">
<g id="area">
<path d="M7.50001 64.5H0V74H292L277.5 55.5L264.5 25.5L256.5 14L250 0L223 11L201 25.5L196 36.5L181 18.5L169.5 0L161 23L151 32L140 42.5L131.5 58H124L112.5 64.5H96.5L80 67.5L65.5 64.5L47.5 67.5L31 64.5L21.5 67.5L7.50001 64.5Z" fill="var(--fill-0, #6484F7)" fill-opacity="0.8"/>
<path d="M7.50001 64.5H0V74H292L277.5 55.5L264.5 25.5L256.5 14L250 0L223 11L201 25.5L196 36.5L181 18.5L169.5 0L161 23L151 32L140 42.5L131.5 58H124L112.5 64.5H96.5L80 67.5L65.5 64.5L47.5 67.5L31 64.5L21.5 67.5L7.50001 64.5Z" fill="url(#paint0_linear_225_2118)"/>
</g>
<defs>
<linearGradient id="paint0_linear_225_2118" x1="0" y1="37" x2="292.344" y2="37" gradientUnits="userSpaceOnUse">
<stop stop-color="#2400C4" stop-opacity="0"/>
<stop offset="0.7" stop-color="#2400C4" stop-opacity="0.3"/>
<stop offset="0.7" stop-color="#2400C4" stop-opacity="0"/>
</linearGradient>
</defs>
</svg>
