<svg preserveAspectRatio="none" width="100%" height="100%" overflow="visible" style="display: block;" viewBox="0 0 74 43" fill="none" xmlns="http://www.w3.org/2000/svg">
<g id="Shape 910 copy 21-2" opacity="0.5">
<path d="M33.1629 41.4024L2.47293 23.6324C0.292926 22.3724 0.562926 20.1624 3.08293 18.7024L32.5429 1.65242C35.0629 0.192424 38.8329 1.46243 41.0129 2.73243L71.3729 20.1724C73.5529 21.4324 73.6429 22.5324 71.1329 23.9924L41.6729 41.0424C39.1529 42.5024 35.3429 42.6624 33.1629 41.3924V41.4024Z" fill="url(#paint0_linear_279_1768)" style="mix-blend-mode:plus-darker"/>
<path d="M33.1629 41.4024L2.47293 23.6324C0.292926 22.3724 0.562926 20.1624 3.08293 18.7024L32.5429 1.65242C35.0629 0.192424 38.8329 1.46243 41.0129 2.73243L71.3729 20.1724C73.5529 21.4324 73.6429 22.5324 71.1329 23.9924L41.6729 41.0424C39.1529 42.5024 35.3429 42.6624 33.1629 41.3924V41.4024Z" stroke="var(--stroke-0, #B5C5CC)"/>
</g>
<defs>
<linearGradient id="paint0_linear_279_1768" x1="37.0061" y1="1" x2="37.0061" y2="42.2501" gradientUnits="userSpaceOnUse">
<stop stop-color="#6AD0FF"/>
<stop offset="1" stop-color="#2BBDFF"/>
</linearGradient>
</defs>
</svg>
