<svg preserveAspectRatio="none" width="100%" height="100%" overflow="visible" style="display: block;" viewBox="0 0 73 42" fill="none" xmlns="http://www.w3.org/2000/svg">
<g id="Shape 832 copy 17-2" opacity="0.6">
<path d="M35.2429 41.7703C34.1629 41.7303 33.1029 41.4503 32.1429 40.9403L1.47293 23.1803C-0.707074 21.9203 -0.437073 19.7203 2.08293 18.2603L31.5429 1.21026C33.2329 0.290255 35.1529 -0.119745 37.0729 0.0302551H37.0529C38.1029 0.0802551 39.1329 0.360255 40.0629 0.860255L70.7529 18.6103C72.9329 19.8703 72.6629 22.0803 70.1429 23.5403L40.6829 40.5803C39.2029 41.3803 37.5529 41.8003 35.8729 41.7803C35.6729 41.7803 35.4629 41.7803 35.2629 41.7703H35.2429ZM32.9129 1.22026L3.45293 18.2603C0.932927 19.7203 0.662926 21.9203 2.84293 23.1803L33.5229 40.9303C34.2729 41.3403 35.0929 41.6003 35.9429 41.7003C37.1829 41.5603 38.3729 41.1803 39.4629 40.5803L68.9229 23.5403C71.4429 22.0803 71.7129 19.8803 69.5329 18.6203L38.8529 0.870255C38.1029 0.460255 37.2829 0.200256 36.4329 0.100256C35.2029 0.240256 34.0029 0.620256 32.9229 1.22026H32.9129Z" fill="url(#paint0_linear_279_1778)" style="mix-blend-mode:plus-darker"/>
</g>
<defs>
<linearGradient id="paint0_linear_279_1778" x1="36.1129" y1="0" x2="36.1129" y2="41.7809" gradientUnits="userSpaceOnUse">
<stop stop-color="#6AD0FF"/>
<stop offset="1" stop-color="#2BBDFF"/>
</linearGradient>
</defs>
</svg>
