<svg preserveAspectRatio="none" width="100%" height="100%" overflow="visible" style="display: block;" viewBox="0 0 73 42" fill="none" xmlns="http://www.w3.org/2000/svg">
<g id="Shape 832 copy 17-3" opacity="0.6">
<path d="M35.2429 41.7573C34.1629 41.7173 33.1029 41.4373 32.1429 40.9273L1.47293 23.1773C-0.707074 21.9173 -0.437073 19.7073 2.08293 18.2573L31.5429 1.20727C33.2329 0.287266 35.1529 -0.112734 37.0729 0.0272659H37.0529C38.1029 0.0772659 39.1329 0.357266 40.0629 0.857266L70.7529 18.6073C72.9329 19.8673 72.6629 22.0773 70.1429 23.5273L40.6829 40.5673C39.2129 41.3673 37.5529 41.7873 35.8729 41.7673C35.6729 41.7673 35.4629 41.7673 35.2629 41.7473L35.2429 41.7573ZM32.9129 1.20727L3.45293 18.2473C0.932927 19.7073 0.662926 21.9073 2.84293 23.1673L33.5229 40.9173C34.2729 41.3273 35.0929 41.5873 35.9429 41.6873C37.1829 41.5473 38.3729 41.1673 39.4629 40.5673L68.9229 23.5273C71.4429 22.0673 71.7129 19.8673 69.5329 18.5973L38.8529 0.857266C38.1029 0.447266 37.2829 0.187266 36.4229 0.0872659C35.1929 0.227266 33.9929 0.607266 32.9129 1.20727Z" fill="url(#paint0_linear_279_1842)" style="mix-blend-mode:plus-darker"/>
</g>
<defs>
<linearGradient id="paint0_linear_279_1842" x1="36.1129" y1="0" x2="36.1129" y2="41.7679" gradientUnits="userSpaceOnUse">
<stop stop-color="#6AD0FF"/>
<stop offset="1" stop-color="#2BBDFF"/>
</linearGradient>
</defs>
</svg>
